<?xml version="1.0" standalone="no"?>
<!DOCTYPE svg PUBLIC "-//W3C//DTD SVG 20010904//EN"
 "http://www.w3.org/TR/2001/REC-SVG-20010904/DTD/svg10.dtd">
<svg version="1.0" xmlns="http://www.w3.org/2000/svg"
 width="700.000000pt" height="700.000000pt" viewBox="0 0 700.000000 700.000000"
 preserveAspectRatio="xMidYMid meet">
<metadata>
Created by potrace 1.11, written by Peter Selinger 2001-2013
</metadata>
<g transform="translate(0.000000,700.000000) scale(0.100000,-0.100000)"
fill="#000000" stroke="none">
<path d="M3299 6996 c-2 -2 -43 -7 -90 -10 -47 -4 -95 -8 -107 -11 -11 -2 -47
-6 -79 -10 -65 -7 -331 -64 -438 -94 -38 -11 -120 -38 -181 -59 -917 -329
-1643 -1037 -2028 -1978 -60 -146 -159 -481 -182 -614 -3 -14 -11 -61 -19
-105 -8 -44 -17 -107 -21 -140 -4 -33 -8 -69 -10 -79 -10 -54 -18 -230 -18
-386 0 -221 9 -359 35 -535 21 -138 28 -177 44 -245 8 -30 16 -66 19 -80 56
-273 223 -686 399 -985 52 -87 168 -259 179 -263 4 -2 8 -8 8 -14 0 -21 206
-263 330 -388 219 -220 427 -384 690 -542 73 -44 260 -141 330 -171 19 -8 55
-24 80 -35 178 -78 515 -175 725 -208 28 -4 57 -9 65 -10 8 -2 44 -6 80 -9 36
-4 76 -9 90 -12 42 -9 490 -11 570 -3 159 16 379 50 450 69 19 5 80 22 135 36
469 125 917 362 1294 685 375 320 694 742 897 1183 87 190 162 392 205 557 11
41 22 82 24 90 11 43 54 251 59 290 3 25 8 59 11 75 23 145 30 258 30 490 0
194 -4 293 -20 452 -3 36 -13 95 -49 298 -11 57 -15 75 -45 187 -134 501 -351
928 -675 1333 -108 134 -375 401 -511 509 -274 218 -564 387 -875 508 -207 82
-447 150 -607 174 -21 3 -45 7 -53 9 -19 6 -70 13 -135 20 -27 3 -63 8 -80 10
-38 6 -521 15 -526 11z m468 -1110 c273 -29 552 -113 801 -241 98 -51 91 -47
222 -134 132 -88 217 -159 341 -281 106 -106 193 -204 239 -273 14 -20 28 -37
33 -37 4 0 7 -4 7 -10 0 -5 22 -42 49 -82 156 -231 295 -577 350 -875 38 -202
45 -279 45 -478 1 -207 -14 -344 -59 -570 -12 -61 -67 -240 -101 -334 -36 -96
-156 -346 -192 -398 -10 -15 -43 -64 -72 -108 -267 -401 -662 -715 -1115 -885
-99 -37 -241 -81 -280 -85 -11 -2 -38 -7 -60 -13 -135 -35 -453 -54 -620 -37
-306 31 -522 91 -784 217 -523 251 -937 695 -1164 1248 -57 138 -116 336 -143
475 -2 11 -6 31 -9 45 -3 14 -7 41 -9 60 -2 19 -8 60 -12 90 -16 112 -9 594
11 652 2 7 6 31 9 53 18 148 98 417 176 595 140 319 359 621 609 840 34 30 68
60 74 65 97 86 297 212 463 292 117 56 335 137 401 149 14 3 53 11 87 19 34 8
79 17 101 20 22 4 51 8 65 11 14 2 59 7 100 10 41 4 76 7 78 9 5 4 305 -3 359
-9z"/>
</g>
</svg>
