<svg id="Calque_1" xmlns="http://www.w3.org/2000/svg" viewBox="0 0 200 2000" preserveAspectRatio="xMidYMin meet"><style>.st0{fill:none}.st1{fill:#fff}</style><g id="Calque_3"><path class="st1" d="M153.4 20.9c3.3 7.9 6.5 15.7 9.8 23.5-20.7 6.3-41.4 12.6-62 18.9-20.8 6.4-41.4 12.7-62.1 19v.2C82 77 124.8 71.6 167.6 66.1c4 32.1 8.1 64.2 12.1 96.2l-.1.1h-.1c-.1 0-.2.1-.3.1-46.9 6-93.7 11.9-140.6 17.9 0 0-.1 0-.2-.1l-.3-1.8c-.7-5.3-1.3-10.6-2-15.9l-1.8-14.4c-.7-5.5-1.4-10.9-2.1-16.4-.5-4.1-1-8.1-1.5-12.2s-1-8.1-1.5-12.2c-.4-3.4-.8-6.7-1.3-10.1-.4-3.4-.9-6.7-1.3-10.1-.1-.7-.2-1.3-.2-2-.1-1.5-.6-2.9-1.1-4.3-1.9-6.1-3.8-12.3-5.6-18.4-.1-.2-.1-.4-.2-.7 44.7-13.4 89.2-27.1 133.9-40.9zm18 135.2c-1.4-11.6-2.9-23-4.3-34.5-41.9 5.3-83.8 10.7-125.6 16-.2 0-.3 0-.5.1-.1 0-.1 0-.2.1l-.1.1c1.4 11.4 2.9 22.8 4.3 34.3 42.1-5.4 84.2-10.8 126.4-16.1zM104.9 127c20.7-2.6 41.3-5.3 61.9-7.9-1.1-9.1-2.3-18.2-3.4-27.3-20.7 2.6-41.3 5.3-62 7.9 1.1 9.1 2.3 18.1 3.5 27.3zM37 107.9c0 .9 3.2 26.7 3.4 27.2.9-.1 61.4-7.7 61.9-8-1.2-9-2.3-18-3.5-27.2-20.5 2.7-41.1 5.4-61.8 8zm97.8-32.6c-.3 0-.5 0-.7.1-3.7.5-7.4 1-11.1 1.4-.4 0-.6.2-.8.6l-7.5 15c-.1.2-.1.3-.2.6h.7c3.7-.5 7.3-1 11-1.4.5-.1.8-.2 1-.7 2.4-4.9 4.9-9.8 7.3-14.8 0-.2.1-.4.3-.8zm-46.4 21c.6-.1 1.2-.1 1.7-.2 3.3-.4 6.7-.9 10-1.3.5-.1.7-.2 1-.7 2.4-5 4.9-9.9 7.4-14.9.1-.2.2-.4.3-.7-.3 0-.5 0-.7.1-3.7.5-7.3 1-11 1.4-.5.1-.7.2-.9.7-2.5 5-4.9 9.9-7.4 14.9-.2.2-.3.4-.4.7zm52.1-6.6h.8c3.7-.5 7.4-1 11-1.4.4 0 .6-.2.8-.6l7.5-15c.1-.2.1-.3.2-.6-1 .1-1.8.2-2.7.3-3 .4-6 .8-9 1.1-.5.1-.8.2-1 .7-2.4 4.9-4.9 9.9-7.3 14.8-.1.2-.2.4-.3.7zm-78.1 9.9c.6-.1 1-.1 1.5-.2 3.4-.4 6.8-.9 10.2-1.3.5-.1.7-.2 1-.7 2.4-5 4.9-9.9 7.4-14.9.1-.2.2-.4.3-.7-.4 0-.7.1-1 .1-.5.1-1.1.1-1.6.2-3.1.4-6.1.8-9.2 1.2-.4.1-.7.2-.8.6-2.5 5-5 10-7.4 15-.3.3-.3.5-.4.7zm41.2-57.9l.4.4c4.4 3.6 8.7 7.2 13.1 10.7.3.3.6.3 1 .1 3.6-1.1 7.1-2.2 10.7-3.3.2-.1.4-.1.6-.2-.2-.2-.4-.3-.5-.5-4.3-3.5-8.6-7-12.9-10.6-.4-.3-.7-.3-1.1-.2-2.5.8-5.1 1.6-7.6 2.3-1.2.6-2.4.9-3.7 1.3zm-25 7.7c0 .1-.1.1-.1.2.1.1.3.1.4.2 4.4 3.6 8.7 7.1 13.1 10.7.3.2.5.3.9.2 3.6-1.1 7.3-2.2 11-3.4.1 0 .3-.1.4-.2l-.3-.3c-4.4-3.6-8.7-7.2-13.1-10.7-.3-.3-.6-.3-1-.2-2.2.7-4.4 1.4-6.6 2-1.6.5-3.1 1-4.7 1.5zm-25.2 7.7c.2.2.3.3.5.4 4.3 3.5 8.6 7.1 12.9 10.6.3.3.6.3 1 .2L78.6 65c.2-.1.3-.1.6-.2l-.4-.4c-4.3-3.5-8.7-7.1-13-10.7-.3-.3-.6-.3-1-.2-3.5 1.1-7.1 2.2-10.6 3.3-.3.1-.5.2-.8.3zm-25.1 7.6c.2.2.4.3.5.5 4.3 3.5 8.6 7 12.9 10.6.3.3.6.3 1 .2l10.8-3.3c.2 0 .3-.1.5-.2l-.4-.4c-4.3-3.5-8.7-7.1-13-10.7-.3-.3-.6-.3-1-.2-3.6 1.1-7.1 2.2-10.7 3.3-.1.1-.3.1-.6.2zm126.2-22.9c-.3-.2-.4-.4-.6-.5-1-.8-1.9-1.6-2.9-2.4l-9.9-8.1c-.3-.2-.5-.4-.9-.3-3.7 1.2-7.4 2.3-11.1 3.4-.1 0-.2.1-.4.2l.3.3c4.4 3.6 8.7 7.1 13.1 10.7.3.3.6.3 1 .2 3.6-1.1 7.1-2.2 10.7-3.3.2 0 .4 0 .7-.2zM36.3 103h.5c2-.3 4-.5 6-.8 1.8-.2 3.6-.5 5.4-.7.4 0 .6-.1.8-.5 2.5-5.1 5-10.2 7.6-15.2.1-.1.1-.3.1-.5h-.4c-1.1.1-2.3.3-3.4.4-2.6.3-5.2.7-7.8 1-.5.1-.8.3-1 .7-2.4 4.9-4.9 9.9-7.4 14.8-.1.3-.2.5-.4.8z"/><path class="st1" d="M53.8 160.3c-.6.3-1 .6-1.6.9-.9-7.2-1.7-14.3-2.6-21.4.6-.2 1.1-.2 1.7-.3.9 7 1.7 13.9 2.5 20.8zm3.4-2c-.5.3-1 .6-1.6 1-.8-6.7-1.6-13.3-2.4-20 .6-.1 1.1-.1 1.7-.2.7 6.4 1.5 12.8 2.3 19.2zm-.6-19.4c.4-.1.8-.1 1.2-.2h.5c.7 5.9 1.4 11.7 2.1 17.6-.5.3-1 .6-1.6 1-.7-6.2-1.4-12.2-2.2-18.4zm7.2 15.5c-.5.3-1 .6-1.6 1-.7-5.7-1.3-11.2-2-16.9.6-.1 1.1-.1 1.7-.2.6 5.4 1.2 10.7 1.9 16.1zm-.1-16.3c.6-.1 1.1-.1 1.7-.2.4 2.4.6 4.9.9 7.3.3 2.4.6 4.8.9 7.3-.5.3-1 .6-1.6 1-.7-5.3-1.4-10.3-1.9-15.4zm6.7 12.3c-.5.3-1 .6-1.6.9-.6-4.6-1.1-9.2-1.7-13.7.6-.1 1.1-.1 1.7-.2.6 4.3 1.1 8.7 1.6 13zm.2-13.2c.6-.1 1.1-.1 1.7-.2.5 3.8.9 7.6 1.4 11.5-.5.3-1 .6-1.6 1-.5-4.2-1-8.2-1.5-12.3zm6.4 9.3c-.5.3-1 .6-1.6.9-.3-1.8-.5-3.6-.7-5.3-.2-1.8-.4-3.5-.6-5.3.6-.1 1.1-.1 1.7-.2l1.2 9.9zm4.1-10.6c.8-.1 1.5-.2 2.3-.3.3 2.2.5 4.4.8 6.5-.7.4-1.4.8-2.2 1.3l-.9-7.5zm-1.8.2c.3 2.9.7 5.6 1 8.4-.3.2-.6.4-1 .6-.2.1-.4.2-.7.4-.4-3-.7-6-1.1-9 .7-.4 1.2-.2 1.8-.4zm-29.2 26.4c-1.1-7.5-2.1-14.9-3.2-22.3.3-.1.5-.1.9-.2.1.6.2 1.1.2 1.7.5 4.4 1.1 8.8 1.6 13.2.3 2.3.5 4.5.8 6.8.1.3.2.6-.3.8zM87 135.2c.2 1.7.4 3.3.6 5-.5.3-1 .6-1.6 1-.2-2-.5-3.8-.7-5.7.6-.2 1.1-.2 1.7-.3zm2.3 4c-.2-1.5-.3-2.8-.5-4.2.6-.1 1.1-.1 1.7-.2.1 1.1.3 2.3.4 3.5-.5.2-1 .5-1.6.9zm4.7-4.9c.1.7.2 1.3.2 1.9-.5.3-1 .6-1.6 1-.1-.9-.2-1.7-.3-2.6.5-.1 1.1-.2 1.7-.3zm1.9.9c-.1-.4-.1-.7-.1-1 .6-.2 1.1-.3 1.8-.2-.4.6-1.1.8-1.7 1.2zm15.1-31.4c.6-.1 1.1-.1 1.7-.2.8 6.3 1.5 12.5 2.3 18.8-.6.1-1.1.1-1.7.2-.8-6.3-1.6-12.5-2.3-18.8zm-3.5.5c.6-.1 1.1-.1 1.7-.2.8 6.3 1.5 12.5 2.3 18.7-.3.1-.6.1-.8.1-.3 0-.5 0-.9.1-.8-6.2-1.6-12.4-2.3-18.7zm9.2 17.9c-.8-6.3-1.5-12.5-2.2-18.8.6-.1 1.1-.1 1.7-.2.1.6.2 1.1.2 1.7.4 3.7.9 7.3 1.3 11 .2 1.8.4 3.7.7 5.5.1.4 0 .6-.4.7-.4 0-.8 0-1.3.1zm5-2.4c-.5.3-1 .6-1.6 1-.7-6-1.4-11.8-2.1-17.8.6-.1 1.1-.1 1.7-.2.7 5.6 1.3 11.3 2 17zm1.7-1c-.7-5.5-1.3-10.8-1.9-16.2.6-.1 1.1-.1 1.7-.2.6 5.2 1.2 10.3 1.9 15.5-.6.2-1.1.5-1.7.9zm-15.5 4.5c-.5.1-1 .1-1.5.2-.7-6.3-1.4-12.5-2.1-18.8.5-.1.9-.1 1.3-.2.8 6.2 1.6 12.4 2.3 18.8zm17.1-21.2c.6-.1 1.1-.1 1.7-.2.6 4.7 1.1 9.3 1.7 13.9-.5.3-1 .6-1.6 1-.7-5-1.2-9.8-1.8-14.7zm3.5-.4c.6-.1 1.1-.1 1.7-.2.5 4.2 1 8.3 1.5 12.4-.4.3-.8.5-1.2.7-.1.1-.2.1-.4.2-.6-4.4-1.1-8.7-1.6-13.1zm6.7 10.1c-.6.4-1.2.7-1.8 1.1-.5-3.9-.9-7.7-1.4-11.5.5-.2 1.2-.3 1.9-.3.4 3.5.8 7.1 1.3 10.7zm1.7-1.1c-.4-3.4-.8-6.7-1.2-10 .6-.1 1.1-.1 1.7-.2.4 3.1.7 6.2 1.1 9.2-.5.4-1 .7-1.6 1zm4.9-2.9c-.6.3-1 .6-1.6.9-.3-2.8-.7-5.6-1-8.4.4-.1.7-.1 1-.2h.7c.3 2.6.6 5.1.9 7.7zm2.6-8.1c.2 2.1.5 4.1.7 6.1-.5.3-1 .6-1.6 1-.3-2.3-.6-4.6-.8-6.9.3-.1.6-.1.8-.1.3-.1.5-.1.9-.1zm1.8-.3c.6-.1 1.1-.1 1.7-.2.2 1.6.4 3.1.6 4.6-.5.3-1 .6-1.6.9-.3-1.7-.5-3.5-.7-5.3zm3.9 3.4c-.2-1.4-.3-2.6-.5-3.8.6-.1 1.1-.1 1.7-.2.1 1 .3 2 .4 3.1-.4.3-.9.6-1.6.9zm3.1-4.2c.6-.1 1.1-.1 1.7-.2.1.5.1 1 .2 1.5-.5.3-1 .6-1.6 1-.1-.8-.2-1.6-.3-2.3zm3.6.3c0-.3 0-.5-.1-.7.5-.1.9-.1 1.3-.1v.1c-.4.1-.8.4-1.2.7zm-74.5 27.5c-.8.1-1.5.2-2.3.3-.7-6.3-1.5-12.4-2.2-18.7.8-.1 1.5-.2 2.2-.3.2.5 2.3 17.1 2.3 18.7zm10.2-20.3c.5-.1 1-.1 1.6-.2.8 6.2 1.5 12.5 2.3 18.7-.6.1-1.1.1-1.6.2-.2-.4-2.3-17.5-2.3-18.7zm-3.6.5c.6-.1 1.1-.1 1.7-.2.7 6.2 1.5 12.4 2.2 18.7-.6.1-1.1.1-1.7.2-.7-6.3-1.4-12.5-2.2-18.7zm-5.3.7c.7 6.2 1.5 12.4 2.2 18.7-.6.1-1.1.1-1.7.2-.7-6.2-1.5-12.4-2.2-18.7.5-.1.9-.1 1.3-.2h.4zm5.8 18.2c-.5.1-.8.1-1.2.2h-.5c-.7-6.2-1.5-12.4-2.2-18.6.6-.1 1.1-.1 1.7-.2.7 6.2 1.4 12.3 2.2 18.6zm-18.6-16.7c.6-.1 1.1-.1 1.7-.2.7 6.2 1.5 12.4 2.2 18.6-.5.1-1.1.2-1.6.2-.2-.4-2.2-16.7-2.3-18.6zm3.5-.4c.1 0 .2-.1.3-.1.4-.1.9-.1 1.4-.2.7 6.2 1.5 12.4 2.2 18.6-.5.3-1.1.2-1.7.3-.7-6.2-1.5-12.4-2.2-18.6zm-10.5 1.3c.6-.1 1.1-.1 1.7-.2.7 6.2 1.5 12.4 2.2 18.6-.6.1-1.1.1-1.7.2-.7-6.2-1.5-12.4-2.2-18.6zm5.7 18.2c-.7-6.3-1.5-12.4-2.2-18.7.6-.1 1.1-.1 1.7-.2.8 6.2 1.5 12.4 2.2 18.7-.6.1-1.1.1-1.7.2zm-19.7-16.5c.6-.1 1.1-.1 1.7-.2.7 6.2 1.5 12.4 2.2 18.6-.5.1-1 .1-1.4.2H52c-.7-6.2-1.5-12.3-2.2-18.6zm14.4 17.2c-.6.1-1.1.1-1.7.2-.7-6.2-1.5-12.4-2.2-18.6.6-.1 1.1-.1 1.7-.2.4 3.1.8 6.2 1.1 9.3.4 3 .8 6.1 1.1 9.3zm-7.4-18c.6-.1 1.1-.1 1.6-.2.2.5 2.3 17.3 2.3 18.6-.5.1-1 .1-1.6.2-.8-6.2-1.6-12.4-2.3-18.6zm-6.6 19.7c-.6.1-1.1.1-1.7.2-.7-6.2-1.5-12.4-2.2-18.6.6-.1 1.1-.1 1.7-.2.8 6.2 1.5 12.3 2.2 18.6zm3.1-19.3c.6-.1 1.1-.1 1.7-.2.7 6.2 1.5 12.3 2.2 18.6-.3.1-.5.1-.8.1s-.5.1-.9.1c-.3-2.1-.5-4.1-.8-6.2-.3-2-.5-4.1-.7-6.2-.2-2-.4-4.1-.7-6.2zm-6.6 19.7c-.4.1-.7.1-1 .1-.4-2-.6-4.1-.9-6.1-.3-2.1-.6-4.1-.9-6.2-.3-2-.6-4.1-.9-6.1.4-.3.9-.2 1.5-.3.8 6.2 1.5 12.4 2.2 18.6zm49.2-25c.4-.1.7-.1 1.2-.2.3 2.1.5 4.1.7 6.2s.5 4.1.7 6.2.4 4.1.7 6.3c-.3.1-.6.1-1 .2-.8-6.2-1.5-12.4-2.3-18.7z"/></g><g id="Calque_2"><path class="st1" d="M18.6 262.9c43.8-16.2 87.4-32.4 131.2-48.6 3.7 7.6 7.3 15.3 11 22.9-.3.1-.5.2-.7.3-40.7 14.9-81.4 29.9-122.2 44.8-.8.3-1.7.4-2.6.6-.3.1-.6.1-.8.3h.7c3.8-.2 7.5-.4 11.3-.6 4.2-.2 8.4-.5 12.7-.7 2.7-.2 5.5-.3 8.2-.5 4.2-.2 8.4-.5 12.7-.7 2.6-.2 5.3-.3 7.9-.4 3.5-.2 7.1-.4 10.6-.6 2.6-.2 5.2-.3 7.8-.4l10.8-.6c2.6-.1 5.2-.3 7.8-.4l10.8-.6c2.6-.1 5.2-.3 7.8-.4l10.8-.6c2.5-.1 5-.3 7.5-.4 2.1-.1 4.3-.2 6.4-.4h.5c.1.8.1 1.6.2 2.4l.9 16.5c.2 3.6.4 7.2.6 10.9.2 4.3.5 8.7.7 13 .2 2.7.3 5.5.4 8.2.2 3.6.4 7.2.6 10.9.1 2.7.3 5.3.4 8l.6 11.1c.1 2.4.3 4.8.4 7.3.1 2.7.3 5.3.4 8v.8c-.3 0-.5.1-.8.1-2.7.2-5.5.3-8.2.5-4.2.2-8.4.5-12.7.7-2.7.2-5.3.3-8 .4-3.5.2-7.1.4-10.6.6-2.5.1-5 .3-7.5.4l-11.1.6c-2.6.1-5.2.3-7.9.4-3.6.2-7.1.4-10.7.6-2.5.1-5.1.3-7.6.4l-11.1.6c-2.5.1-5 .3-7.5.4l-11.1.6c-2.6.1-5.2.3-7.9.4-3.6.2-7.1.4-10.7.6-2.8.2-5.7.3-8.5.5h-.5c0-.6-.1-1.2-.1-1.7-.2-4.4-.5-8.9-.7-13.3-.3-4.8-.5-9.6-.8-14.4s-.5-9.5-.8-14.3-.5-9.6-.8-14.5c-.2-4-.4-7.9-.7-11.9-.3-4.8-.5-9.6-.8-14.5-.2-3.8-.4-7.5-.6-11.3 0-.3-.1-.7-.2-1-2.5-6.8-5-13.5-7.4-20.3 0-.2 0-.4-.1-.7zm20.2 109.9h.7c1.1-.1 2.1-.1 3.2-.2l11.1-.6c2.5-.1 5-.3 7.5-.4l11.1-.6c2.5-.1 5.1-.3 7.6-.4 3.5-.2 7.1-.4 10.6-.6 2.7-.2 5.3-.3 8-.5 3.5-.2 6.9-.4 10.4-.6 2.7-.2 5.4-.3 8.1-.5 4.2-.2 8.4-.5 12.6-.7 3.5-.2 7.1-.4 10.6-.6 5-.3 9.9-.6 14.9-.9 3.4-.2 6.9-.4 10.3-.6.2 0 .3 0 .6-.1-.6-11.6-1.3-23.1-1.9-34.7-.8 0-1.5.1-2.3.1l-10.5.6c-2.7.2-5.3.3-8 .4l-11.1.6c-2.5.1-5.1.3-7.6.4l-10.5.6c-2.7.2-5.4.3-8.1.5l-10.5.6c-2.7.2-5.4.3-8.1.5-4.2.2-8.4.5-12.6.7-3.5.2-7.1.4-10.6.6-5 .3-9.9.6-14.9.9-3.5.2-7.1.4-10.6.6-.7 0-1.3.1-2 .2.8 11.6 1.4 23.1 2 34.7zm62.9-41h.6c2.4-.1 4.7-.3 7.1-.4 5.5-.3 10.9-.6 16.4-.9 3.8-.2 7.7-.4 11.5-.7 4.7-.3 9.3-.5 14-.8 4.1-.2 8.2-.5 12.3-.7.2 0 .3-.1.5-.1-.3-4.6-.5-9.1-.7-13.7-.3-5.9-.7-13.3-.9-13.7h-.5c-1.2.1-2.3.1-3.5.2-2.7.2-5.3.3-8 .4-4.2.2-8.4.5-12.6.7-3.5.2-7.1.4-10.6.6-5 .3-9.9.6-14.9.9-3.5.2-7.1.4-10.6.6-.5 0-1.1.1-1.7.1.6 9.3 1.1 18.4 1.6 27.5zm-4-27.2h-.6c-2.6.2-5.2.3-7.8.5-3.8.2-7.7.4-11.5.7-4.7.3-9.3.5-14 .8-3.8.2-7.7.4-11.5.7l-15.3.9c-.5 0-1.1.1-1.7.1.5 9.2 1 18.3 1.5 27.4h.5c.8 0 1.6-.1 2.5-.1 4.6-.3 9.3-.5 13.9-.8s9.3-.5 13.9-.8c5.4-.3 10.9-.6 16.3-.9 4.3-.2 8.6-.5 12.9-.7.8 0 1.5-.1 2.4-.2-.5-9.3-1-18.4-1.5-27.6zm37.4-22.2h-.7c-3.7.2-7.5.4-11.2.6-.4 0-.6.2-.8.5-2.8 4.8-5.7 9.7-8.5 14.5-.1.2-.2.3-.3.6h.5c3.7-.2 7.5-.4 11.2-.6.5 0 .8-.2 1.1-.6 2.8-4.8 5.6-9.5 8.4-14.3.1-.2.2-.4.3-.7zm-47.7 17.8h.8l11.1-.6c.4 0 .6-.2.7-.5 2.9-4.9 5.7-9.8 8.6-14.7.1-.1.1-.3.2-.4h-.4c-1.3.1-2.5.1-3.8.2-2.5.1-5 .3-7.5.4-.5 0-.8.2-1 .7-2.8 4.8-5.6 9.5-8.4 14.3 0 .1-.1.3-.3.6zm15.4-47l-.3-.3c-4.6-3.4-9.2-6.7-13.8-10.1-.3-.2-.5-.2-.9-.1-3.6 1.3-7.1 2.6-10.7 3.9-.2.1-.3.1-.5.2.2.2.4.3.5.4l13.5 9.9c.4.3.7.3 1.1.1 3.5-1.3 7-2.6 10.4-3.8.2 0 .4 0 .7-.2zm-20 32.3h-.6c-.7 0-1.5.1-2.2.1-3 .2-6.1.4-9.1.5-.4 0-.6.2-.8.5-2.8 4.9-5.7 9.7-8.5 14.6-.1.1-.1.3-.2.5h1.5c3.4-.2 6.8-.4 10.3-.6.5 0 .7-.2.9-.6l8.4-14.4c0-.2.1-.4.3-.6zm69.2-50.3c-.2-.2-.4-.3-.6-.5-4.5-3.3-8.9-6.5-13.4-9.8-.4-.3-.7-.3-1.2-.1-3.5 1.3-6.9 2.5-10.4 3.8-.2.1-.4.2-.7.3.2.2.4.3.6.5 4.5 3.3 8.9 6.5 13.4 9.8.4.3.7.3 1.1.2 3.5-1.3 6.9-2.6 10.4-3.8.3-.2.5-.3.8-.4zm-12.2 61.9h.7l6-.3c1.7-.1 3.5-.2 5.2-.3.4 0 .7-.2.9-.6 2.8-4.8 5.6-9.6 8.4-14.3l.3-.6h-1.4c-3.4.2-6.9.4-10.3.6-.5 0-.7.2-1 .6-2.8 4.8-5.6 9.6-8.4 14.3-.1.2-.2.4-.4.6zm-38.6-59.2l.4.4c4.5 3.3 9.1 6.6 13.6 10 .3.2.6.3.9.1 3.6-1.3 7.1-2.6 10.7-3.9.2-.1.3-.1.5-.2-.2-.2-.3-.3-.5-.4-4.5-3.3-9.1-6.6-13.6-9.9-.4-.3-.6-.3-1-.1-3.5 1.3-7 2.6-10.4 3.8-.1 0-.3.1-.6.2zm-49.3 18c.2.2.3.3.5.4 4.5 3.3 9.1 6.6 13.6 10 .3.2.5.3.9.1 3.6-1.3 7.2-2.6 10.8-4 .1 0 .3-.1.4-.2-.2-.1-.2-.2-.4-.3-4.6-3.3-9.2-6.7-13.7-10-.3-.2-.6-.2-.9-.1-2.3.8-4.5 1.7-6.8 2.5-1.4.5-2.8 1.1-4.4 1.6zm-16.8 47.3h.5l6.3-.3 5.1-.3c.4 0 .7-.2.9-.6 2.8-4.8 5.6-9.6 8.4-14.3l.3-.6h-1.2l-10.5.6c-.5 0-.8.2-1.1.6-2.8 4.8-5.6 9.5-8.4 14.3-.1.1-.2.3-.3.6zm18.4-31.9c-.2-.2-.4-.3-.5-.4-4.5-3.3-9-6.5-13.5-9.8-.4-.3-.7-.3-1.1-.2l-10.5 3.9-.6.3c.2.2.4.3.6.4 4.5 3.3 9 6.6 13.5 9.8.4.3.7.3 1.1.1 3.5-1.3 7-2.6 10.4-3.8.1-.1.3-.2.6-.3z"/><path class="st1" d="M48.5 361.7c-.5.2-1 .5-1.5.7-.2-.6-1.2-20.8-1.1-21.6.5 0 1-.1 1.5-.1.1.5 1.2 19.7 1.1 21zm.8-21.1H51c.3 6.4.6 12.8 1 19.2-.6.3-1.1.5-1.7.8-.3-6.6-.7-13.2-1-20zm3.5-.1c.4 0 .7-.1 1-.1h.6c.2.5 1 16.5 1 17.8-.5.3-1 .5-1.6.8-.4-6.3-.7-12.3-1-18.5zm3.5-.2H58c.3 5.3.5 10.7.8 16.1-.3.1-.6.3-.8.4-.3.1-.5.2-.9.4-.2-5.7-.5-11.3-.8-16.9zm3.6-.2c.6 0 1.1-.1 1.7-.1 0 .6.1 1.1.1 1.6.2 4.2.4 8.3.6 12.5 0 .4-.1.7-.5.8-.4.1-.7.3-1.2.6-.2-5.2-.5-10.3-.7-15.4zm3.5-.2c.6 0 1.1-.1 1.7-.1.2 4.4.4 8.7.7 13.1-.6.3-1.1.5-1.7.8-.3-4.6-.5-9.2-.7-13.8zm3.5-.2h1.7c.2 3.8.4 7.6.6 11.5-.5.3-1.1.5-1.7.8l-.6-12.3zm4.1 10.5c-.2-3.6-.4-7.1-.5-10.6.5-.2 1.1-.2 1.7-.2.2 3.4.3 6.6.5 10l-1.2.6c-.2.1-.3.1-.5.2zm8.8-11.2l.3 6.6c-.8.4-1.5.7-2.2 1.1-.2-.5-.5-6.7-.4-7.6.8 0 1.5 0 2.3-.1zm-5.9.3h1.7c.1 2.8.3 5.5.4 8.3-.5.3-1 .5-1.7.8-.1-3-.2-6-.4-9.1zM43.1 341c.3 0 .5-.1.8-.1 0 .5.1.9.1 1.4l.6 12.3c.1 2.8.3 5.5.4 8.3 0 .2.1.5-.3.7l-.6-7.5c-.2-2.5-.4-5-.5-7.4-.2-2.6-.3-5.1-.5-7.7zm38.5-2.1h1.7c.2 1.6.2 3.3.3 4.9-.5.3-1 .5-1.7.8-.1-1.9-.2-3.7-.3-5.7zm5.2-.3c0 .3 0 .6.1.8 0 .7.1 1.5.1 2.2 0 .3 0 .5-.4.7s-.8.4-1.3.6c-.1-1.4-.1-2.8-.2-4.2.6 0 1.1 0 1.7-.1zm1.9-.1c.5 0 1 0 1.6-.1 0 .6.1 1.1.1 1.7 0 .1-.1.3-.2.3-.4.2-.9.5-1.4.7 0-.5-.1-.9-.1-1.3v-1.3zm3.6.9c0-.4-.1-.7-.1-1h1.7c-.1.4-.5.6-1.6 1zm23.3-11.8c-.5.3-.7.4-1.7.3-.3-6.2-.6-12.5-.9-18.8.6 0 1.1-.1 1.6-.1.1.5 1 17.5 1 18.6zm-6.1-18.4c.5 0 1-.1 1.6-.1l.9 18.9c-.6 0-1.1.1-1.6.1-.1-.5-1-18-.9-18.9zm-.9 19c-.6 0-1.1.1-1.7.1l-.9-18.9h1.7c.3 6.2.6 12.5.9 18.8zm10.5-2.3c-.5.3-1.1.5-1.7.9-.3-6-.6-11.9-.9-17.9.3 0 .6-.1.8-.1.3 0 .5 0 .9-.1.3 5.8.6 11.5.9 17.2zm-14 2.6h-1.6c-.3-6.3-.5-12.5-.8-18.8.5 0 .9-.1 1.4-.1.3 6.2.7 12.5 1 18.9zm14.9-19.9h1.7c.3 5.2.5 10.3.8 15.5-.5.3-1.1.5-1.7.9-.2-5.5-.5-10.9-.8-16.4zm3.5-.1c.6 0 1.1-.1 1.7-.1.3 4.7.5 9.3.7 14-.5.3-1 .5-1.7.8-.2-4.9-.4-9.8-.7-14.7zm3.6-.2c.3 0 .5-.1.6-.1h1.1c.2 4.1.4 8.3.6 12.4-.5.3-1 .5-1.7.8-.2-2.3-.2-4.5-.3-6.6-.1-2.1-.2-4.3-.3-6.5zm3.5-.2c.7 0 1.3-.1 1.9-.1.2 3.6.4 7.2.5 10.8-.6.3-1.2.6-1.9 1-.1-4-.3-7.8-.5-11.7zm5.8 9c-.5.3-1 .5-1.5.8-.2-.5-.7-8.8-.6-10 .5 0 1-.1 1.5-.1.3.5.7 7.7.6 9.3zm1.5-9.4h1.6c.1 2.5.3 5.1.4 7.7-.5.3-1 .5-1.5.8-.1 0-.1-.1-.1-.1-.1-2.7-.3-5.4-.4-8-.1-.2 0-.3 0-.4zm3.8 6.7c-.1-2.4-.2-4.6-.3-6.9.6 0 1.1-.1 1.7-.1.1 2.1.2 4.2.3 6.2-.6.3-1.1.5-1.7.8zm3.2-7.1h1.7c.1 1.5.2 3 .2 4.6-.5.3-1 .5-1.7.9-.1-2-.1-3.7-.2-5.5zm5.2-.3c.1 1.1.1 2 .2 3.1-.5.3-1 .5-1.7.9-.1-1.3-.1-2.5-.2-3.8.6-.1 1.1-.2 1.7-.2zm3.5-.1v1.5c-.5.2-1 .5-1.6.8-.1-.8-.1-1.5-.1-2.3h1.7zm1.9.6c0-.3 0-.5-.1-.7.5 0 .9-.1 1.3-.1-.3.3-.7.5-1.2.8zm-76.1 22.2h-2.3c-.2-2-.2-4.1-.3-6.2-.1-2.1-.2-4.1-.3-6.2l-.3-6.3c.8-.1 1.5-.1 2.4-.1.1 6.3.4 12.5.8 18.8zm7.9-19.3c.5 0 1-.1 1.6-.1.3 6.3.6 12.5.9 18.7-.5.2-.7.2-1.6.2-.1-.4-1-17.8-.9-18.8zm6.1 18.6c-.6 0-1.1.1-1.7.1l-.9-18.9h1.7c.3 6.3.6 12.5.9 18.8zm-13.2-18.2c.6 0 1.1-.1 1.7-.1.3 6.3.6 12.5.9 18.7-.5.2-1.1.2-1.7.1-.3-6.2-.6-12.4-.9-18.7zm-8.5 19.3H70c-.3-6.2-.6-12.4-.9-18.7h1.7c.2 6.2.6 12.4.9 18.7zm3.5-.2c-.6 0-1.1.1-1.7.1-.3-6.3-.6-12.5-.9-18.7.6-.2 1.1-.2 1.7-.2.3 6.3.6 12.5.9 18.8zm8.5-19.3h1.7c.3 6.2.6 12.4.9 18.7h-1.7c-.2-6.1-.5-12.4-.9-18.7zm-22.6 20.1h-1.6c-.2-.4-1.1-17.6-.9-18.7.5 0 1-.1 1.6-.1.3 6.3.6 12.5.9 18.8zm.9-18.9c.6 0 1.1 0 1.6-.1.2.5 1.1 17.7 1 18.7-.5 0-1 .1-1.6.1-.4-6.2-.7-12.4-1-18.7zm6 18.5h-1.6c-.3-6.2-.6-12.4-.9-18.7.6 0 1.1-.1 1.6-.1.2.6 1.1 18.1.9 18.8zm-13.9.7c-.6 0-1.1.1-1.7.1-.3-6.3-.6-12.5-.9-18.7.6 0 1.1-.1 1.7-.1.2 6.2.5 12.4.9 18.7zm.8-18.8c.6 0 1.1-.1 1.6-.1.2.5 1.1 17.6 1 18.7-.5 0-1.1.1-1.7.1-.2-6.2-.6-12.4-.9-18.7zm-10.5.6H46c.2.5 1.1 17.8 1 18.6-.5 0-1 .1-1.6.1-.4-6.3-.7-12.5-1-18.7zm3.5-.2c.6 0 1.1-.1 1.7-.1.3 6.3.6 12.5.9 18.7h-1.7l-.9-18.6zm-4.4 19c-.4 0-.7 0-1.1.1-.4-6.2-.9-12.4-1.3-18.7.5 0 1-.1 1.5-.1.3 6.2.6 12.4.9 18.7zm51.7-2.7c-.3-6.3-.6-12.5-.9-18.8.4 0 .7 0 1.2-.1.3 6.3.5 12.5.8 18.8-.2 0-.3.1-.4.1h-.7z"/></g><g id="Calque_4"><path class="st1" d="M.1 599.3h200.2V399.1s.1 0 .1.1v200.2H.6c-.1 0-.3.2-.5-.1z"/><path class="st1" d="M169.3 483.6c-.4 32.4-.9 64.7-1.3 97-.6.2-141.6-1.5-142.4-1.7v-.8c.2-11.4.3-22.9.5-34.3l.3-26.6c.1-9.7.3-19.4.4-29.1 0-1.4 0-2.8.1-4.1 0-.5-.1-1-.3-1.5L18.2 463c-.1-.2-.2-.4-.3-.7 42.8-18.6 85.5-37.2 128.3-55.7 4.1 7.4 8.2 14.9 12.3 22.3-.3.1-.6.3-.8.4C122 444.6 86.3 460 50.6 475.4c-4 1.7-8 3.5-12 5.2-1.1.5-2.3.7-3.5 1-.4.1-.7.2-1.1.3v.1c45.1.5 90.2 1.1 135.3 1.6zm-136.1 88c1.1.2 126.9 1.6 127.4 1.5v-.7l.3-20.5c.1-4.2.1-8.5.2-12.7v-.8l-127.4-1.5c-.2 11.6-.3 23.2-.5 34.7zm65.6-36.4c20.9.2 41.6.5 62.3.7.1-.1.1-.2.1-.2.1-8.9.3-17.7.4-26.6v-.6l-.1-.1c-20.7-.2-41.5-.5-62.3-.7-.2 9.2-.3 18.3-.4 27.5zm-2.2-27.5c-20.9-.2-41.6-.5-62.5-.7-.1 9.2-.3 18.3-.4 27.5 20.9.3 41.7.5 62.6.7l.3-27.5zm16.3-4.8c.2 0 .3 0 .4.1 3.8 0 7.7.1 11.5.1.4 0 .6-.1.8-.4 3.2-4.6 6.3-9.3 9.5-13.9.1-.1.2-.3.3-.5h-.8c-3.6 0-7.3-.1-10.9-.1-.5 0-.8.1-1.1.6-3.1 4.6-6.2 9.1-9.3 13.7-.1-.1-.2.1-.4.4zM75 443.2c.2.2.3.2.4.3 4.7 3.1 9.5 6.1 14.2 9.2.3.2.6.2 1 .1 3.5-1.5 6.9-3 10.4-4.5.2-.1.3-.2.5-.3-5.1-3.3-10.1-6.5-15.1-9.8-3.8 1.7-7.5 3.3-11.4 5zm48.2-20.8c.2.2.4.3.5.4 4.7 3.1 9.4 6.1 14.1 9.2.3.2.6.2 1 .1 3.4-1.5 6.9-3 10.3-4.5.2-.1.3-.2.6-.3-.2-.2-.4-.3-.5-.4-4.7-3-9.3-6-14-9.1-.4-.3-.7-.3-1.2-.1-3.4 1.5-6.8 2.9-10.2 4.4-.1.1-.3.2-.6.3zm-36.5 80.1c.2 0 .4.1.6.1 3.8 0 7.6.1 11.5.1.4 0 .6-.2.7-.4 3.2-4.6 6.3-9.3 9.5-13.9.1-.1.2-.3.3-.5h-.6c-3.7 0-7.4-.1-11.1-.1-.5 0-.8.2-1.1.6-3.1 4.5-6.2 9.1-9.3 13.6-.2.1-.3.3-.5.5zm12.4-69.7c.2.2.3.3.5.4 4.7 3.1 9.4 6.1 14.1 9.2.3.2.6.2.9.1l10.5-4.5c.2-.1.3-.2.5-.3-.2-.1-.3-.2-.4-.3-4.7-3.1-9.4-6.1-14.1-9.2-.4-.2-.7-.2-1-.1-3.4 1.5-6.8 2.9-10.2 4.4-.4.1-.5.2-.8.3zm-48.2 20.7c.3.2.4.3.6.4 4.6 3 9.3 6 13.9 9 .4.3.7.3 1.2.1 3.4-1.5 6.8-2.9 10.2-4.4.2-.1.4-.2.7-.3-.2-.1-.3-.3-.5-.4-4.7-3.1-9.4-6.1-14.1-9.2-.4-.2-.7-.2-1-.1-2.6 1.1-5.2 2.2-7.8 3.4-1.1.6-2.1 1-3.2 1.5zm2.4 15.3c-.2-.2-.4-.3-.5-.4-4.7-3-9.4-6.1-14.1-9.2-.4-.2-.7-.2-1-.1-3.4 1.5-6.8 3-10.3 4.4-.2.1-.3.2-.6.3.2.2.4.3.5.4 4.7 3 9.4 6.1 14 9.1.4.3.7.3 1.1.1 3.4-1.5 6.8-2.9 10.2-4.4.2 0 .4-.1.7-.2zm-19 33.1c.2 0 .2.1.3.1 3.9 0 7.8.1 11.7.1.3 0 .5-.1.6-.4 3.2-4.7 6.4-9.4 9.7-14.1.1-.1.1-.2.2-.4h-.7c-3.6 0-7.3-.1-10.9-.1-.5 0-.8.1-1.1.6-3.1 4.6-6.2 9.1-9.3 13.7-.3.1-.4.3-.5.5zm127.4-13.4c-.2 0-.4-.1-.6-.1-3.8 0-7.6-.1-11.3-.1-.4 0-.6.1-.8.4-3.2 4.7-6.3 9.3-9.5 13.9-.1.1-.2.3-.3.5h.5c3.8 0 7.6.1 11.4.2.5 0 .7-.2.9-.6 3.1-4.6 6.2-9.1 9.3-13.7.2 0 .3-.2.4-.5zm-78.7-.9c-.2 0-.4-.1-.6-.1-3.8 0-7.6-.1-11.3-.2-.4 0-.6.2-.9.5-3.1 4.6-6.3 9.2-9.4 13.8-.1.2-.2.3-.3.5h.5c3.8 0 7.6.1 11.4.1.4 0 .6-.1.9-.4 3.2-4.6 6.3-9.3 9.5-13.9 0 .1.1-.1.2-.3z"/><path class="st1" d="M43.6 561.2c-.5.2-1.1.4-1.7.7.1-7.3.3-14.4.4-21.6.6-.1 1.1-.1 1.6 0 .2.5-.1 18.7-.3 20.9zm1.9-.8c.1-6.8.3-13.4.4-20h1.7c0 .2.1.4.1.5l-.3 18.3c0 .4-.1.6-.4.7-.6.1-1 .3-1.5.5zm3.9-20H51c.1.5-.1 16.7-.3 17.8-.5.2-1 .4-1.7.7.1-6.2.3-12.3.4-18.5zm3.5.1h1.7l-.3 16.2c-.5.2-1.1.5-1.7.7.1-5.7.2-11.3.3-16.9zm3.6 0h1.7v.7c-.1 4.4-.2 8.8-.2 13.1 0 .6-.2.9-.8 1.1-.3.1-.6.2-1 .4 0-1.8 0-3.5.1-5.2 0-1.7.1-3.4.1-5.1 0-1.6-.1-3.3.1-5zm3.2 13.9c.1-4.7.2-9.2.3-13.8.5-.2 1.1-.1 1.6-.1.2.6 0 11.6-.2 13.1-.5.3-1.1.5-1.7.8zm5.3-2.2c-.6.2-1.1.5-1.7.7.1-4.1.2-8.2.2-12.3h1.7c0 3.9-.2 7.7-.2 11.6zm1.8-.8c.1-3.6.1-7.1.2-10.7h1.7v.6c-.1 2.9-.1 5.8-.1 8.7 0 .5-.2.8-.6.9-.4.1-.7.3-1.2.5zm7.1-3c.1-2.6.1-5.1.1-7.6h2.3c0 .2.1.3.1.5 0 1.8-.1 3.6-.1 5.5 0 .5-.2.7-.6.9-.6.2-1.1.4-1.8.7zm-3.4-7.6h1.7c0 2.8-.1 5.6-.2 8.4-.5.2-1.1.4-1.7.7.1-3.1.2-6.1.2-9.1zm-30.8 21.9v-22.5h.8v.6c-.1 6.5-.2 13-.4 19.5 0 .6 0 1.3-.1 1.9.1.4.1.6-.3.5zm40.1-16.8c-.5.2-1.1.4-1.7.7-.1-2 .1-3.8.1-5.7h1.7c.1 1.7 0 3.3-.1 5zm1.9-5h1.6c.2.6 0 1.2.1 1.7v1.7c-.6.2-1.1.5-1.7.7v-4.1zm3.6.1h1.6v1.7c0 .1-.1.3-.3.3-.4.2-.9.4-1.3.6-.1-.5-.1-1.6 0-2.6zm3.5 1.1V541h1.7c0 .2 0 .3-.1.3-.5.3-1 .6-1.6.8zm17.1-10.1h-1.7c.1-6.3.2-12.6.4-18.9h1.7c-.2 6.3-.3 12.6-.4 18.9zm3.5 0h-1.7c.1-6.3.2-12.6.4-18.8h1.7c-.2 6.3-.3 12.5-.4 18.8zm2.2-18.8h1.7c-.1 6.2-.2 12.5-.4 18.7-.5.4-1.1.3-1.7.2.1-6.3.2-12.5.4-18.9zm4.9 17.2c-.4.2-.7.3-1.1.5-.2.1-.4.1-.7.3.1-6 .2-11.9.3-17.8h1.7c0 5.6-.1 11.3-.2 17zm2.2-17.1h1.6v.5l-.3 14c0 1.4.1 1-1 1.5-.2.1-.4.2-.6.2-.1-.4.1-15.3.3-16.2zm-16.4 18.6h-1.5c.2-6.3.4-12.5.6-18.8h1.4c-.2 6.3-.3 12.6-.5 18.8zm21.3-4.5c-.5.2-.9.4-1.3.6-.1 0-.2.1-.4.1l.3-14.7h1.7c-.1 4.7-.2 9.4-.3 14zm2.1-14h1.7v.6c-.1 3.8-.1 7.6-.2 11.3 0 .4-.1.7-.5.8s-.7.3-1.2.5c0-4.4.1-8.8.2-13.2zm5.2 10.9c-.6.3-1.2.5-1.8.8-.1-.5 0-10.1.1-11.5.5-.1 1.1-.2 1.9 0-.1 3.5-.1 7.1-.2 10.7zm2.1-10.8h1.7v.7c0 2.7-.1 5.4-.1 8.1 0 .4-.1.7-.5.8s-.7.3-1.2.5c-.1-3.4-.1-6.7.1-10.1zm5 7.8c-.6.2-1.1.5-1.7.7.1-2.9.1-5.6.2-8.4h1.7c-.1 2.6-.1 5.1-.2 7.7zm2-7.7h1.7c0 2.1-.1 4.1-.1 6.2-.5.2-1.1.5-1.7.7 0-2.3 0-4.5.1-6.9zm3.5 5.4v-5.3h1.7c0 .1.1.2.1.3v3.8c0 .4-.1.6-.5.7-.5.2-.9.3-1.3.5zm3.5-1.5v-3.8h1.7v3c-.6.4-1.1.6-1.7.8zm3.6-3.7h1.6v1.5c-.5.2-1 .4-1.6.7v-2.2zm3.5.7v-.7h1.2v.1c-.3.3-.7.4-1.2.6zm-77.5 16.9h-2.4c.1-6.3.2-12.5.4-18.8h2.3c-.1 6.3-.2 12.6-.3 18.8zm12.7-18.5h1.2c.1 0 .3 0 .5.1-.1 6.3-.2 12.5-.4 18.8h-1.7c.1-6.4.3-12.6.4-18.9zm-10.5-.2h1.6c.2.6-.2 18.1-.3 18.8h-1.6c0-6.3.1-12.5.3-18.8zm-7.7-.1h1.6c.1.5-.1 17.9-.3 18.8h-1.6c0-6.3.1-12.5.3-18.8zm10.8 19c.1-6.3.2-12.5.4-18.8H84l-.3 18.8h-1.8zm5.3 0h-1.6c-.1-.5.1-17.2.3-18.8.5-.1 1.1-.1 1.7 0-.2 6.3-.3 12.6-.4 18.8zm-33.8-19.2h1.7c-.1 6.3-.2 12.5-.4 18.7H53c.2-6.3.3-12.5.4-18.7zm-10.5-.2h1.7c-.1 6.2-.2 12.5-.4 18.7h-1.7c.1-6.3.2-12.5.4-18.7zm17.2 19c.1-6.3.2-12.5.4-18.7h1.7c-.1 6.3-.3 12.5-.3 18.7h-1.8zm7.5-18.6h1.7c-.1 6.2-.2 12.5-.4 18.7h-1.7c.1-6.2.2-12.4.4-18.7zm-17.7-.3h1.7c-.1 6.2-.2 12.5-.4 18.7h-1.7c.2-6.3.3-12.4.4-18.7zm14.2.2h1.5c.1.5-.1 17.3-.3 18.7-.5.2-1 0-1.6 0-.1-.4.2-17.6.4-18.7zm-5.8 18.6h-1.6c-.1-.5.2-17.7.3-18.7h1.6c0 6.3-.2 12.5-.3 18.7zm-11.8-18.8c.1 0 .2-.1.4-.1h1.3c-.1 6.3-.2 12.5-.4 18.7h-1.6c-.2-.5.1-17.9.3-18.6zm-5.8 18.5c-.1 0-.2.1-.3.1h-.8c0-6.2 0-12.4-.1-18.7H41l-.3 18.6zM92.9 513h1.2c-.2 6.3-.4 12.5-.6 18.8h-1c.1-6.3.2-12.6.4-18.8z"/></g><g id="Calque_5"><path class="st1" d="M168.5 693.5c-2.7 32.3-5.4 64.5-8 96.7h-.7c-2.6-.2-5.3-.4-7.9-.6l-7.2-.6c-3.1-.2-6.1-.5-9.2-.8l-7.2-.6c-3-.2-6.1-.5-9.1-.7-2.4-.2-4.7-.4-7.1-.6-3.1-.3-6.2-.5-9.3-.8l-7.2-.6c-3.1-.2-6.1-.5-9.2-.8l-7.2-.6c-3-.2-6.1-.5-9.1-.7-2.4-.2-4.7-.4-7.1-.6-3.1-.3-6.2-.5-9.3-.8l-7.2-.6c-3-.2-6.1-.5-9.1-.7l-7.2-.6c-3-.2-6.1-.5-9.1-.7-.8-.1-1.5-.1-2.3-.2-.1-.6 0-1.1 0-1.6.2-2.6.4-5.1.6-7.7.3-3.5.6-6.9.9-10.4l.6-7.2c.2-2.9.5-5.9.7-8.8.2-2.3.4-4.7.6-7 .2-3 .5-6 .8-9l.6-6.9c.3-3.1.5-6.1.8-9.2l.6-6.9c.3-3 .5-6.1.8-9.1.2-2.3.4-4.7.6-7 .1-1.2.2-2.4.3-3.7 0-.4-.1-.8-.2-1.2l-9.3-18.6c-.1-.3-.3-.5-.4-.8v-.2c.1 0 .1-.1.2-.1 41.5-20.8 83.1-41.7 124.7-62.6l13.5 21.6c-.3.2-.6.3-.8.4l-72.9 36.3c-14.5 7.2-28.9 14.4-43.4 21.6-.7.4-1.5.6-2.3.8-.8.3-1.6.5-2.3.8.2 0 .4.1.7.1 3 .2 6 .5 9 .7 3.5.3 7 .6 10.6.9 3 .2 6 .5 9 .7 3.5.3 7 .6 10.6.9 2.5.2 4.9.4 7.4.6 3 .2 6 .5 9 .7l7.2.6c3 .2 6.1.5 9.1.8l7.2.6c3 .2 6.1.5 9.1.7l7.2.6c3.1.3 6.2.5 9.2.8l7.2.6c3 .2 6.1.5 9.1.7l7.2.6c1.8.1 3.7.3 5.5.4.1.3.4.3.7.4zM26.6 771.9c10.7.9 21.2 1.7 31.8 2.6 10.6.9 21.1 1.7 31.7 2.6 10.6.9 21.2 1.7 31.8 2.6 10.6.9 21.1 1.7 31.7 2.6.1-1 3-34.1 2.8-34.6-.1 0-.2-.1-.3-.1-1.2-.1-2.5-.2-3.7-.3l-7.2-.6c-3.1-.3-6.2-.5-9.4-.8-2.3-.2-4.7-.4-7-.6-3.1-.3-6.1-.5-9.2-.8l-7.2-.6c-3.1-.3-6.2-.5-9.3-.8-2.4-.2-4.7-.4-7.1-.6-3.1-.2-6.1-.5-9.2-.8l-7.2-.6c-3.1-.3-6.2-.5-9.3-.8-2.3-.2-4.7-.4-7-.6-3.1-.3-6.2-.5-9.4-.8-2.3-.2-4.7-.4-7-.6-3.1-.3-6.1-.5-9.2-.8l-7.2-.6c-.3 0-.6 0-.9-.1-1.1 12-2.1 23.5-3 35.1zM159 717.8c-.7-.2-61.7-5.2-62.3-5.1-.2 3-.5 6-.7 9.1-.2 3-.5 6.1-.7 9.1s-.5 6-.7 9.1c20.8 1.7 41.5 3.4 62.2 5.1.7-9.2 1.5-18.3 2.2-27.3zM29.7 734.7c20.8 1.7 41.5 3.4 62.4 5.1.7-9.2 1.5-18.3 2.2-27.4-20.8-1.7-41.5-3.4-62.3-5.1-.8 9.2-1.5 18.3-2.3 27.4zM122.5 633c-.2-.1-.2-.2-.3-.2-5-2.8-9.9-5.7-14.9-8.5-.3-.2-.6-.1-.9 0l-10.2 5.1c-.1.1-.3.2-.4.3.2.1.3.2.4.3l14.7 8.4c.4.2.7.2 1 0 3.3-1.7 6.6-3.3 10-5 .2-.2.4-.3.6-.4zm-97.1 31.6c.2.1.4.2.5.3 4.9 2.8 9.7 5.6 14.6 8.4.4.2.7.2 1 0 3.3-1.7 6.7-3.3 10-5 .2-.1.3-.2.6-.3-.2-.2-.4-.3-.6-.4-4.8-2.8-9.6-5.5-14.4-8.3-.4-.2-.7-.3-1.2 0-3.3 1.7-6.6 3.3-10 5-.1.1-.3.2-.5.3zm120.7-43.3c-.2-.1-.3-.2-.4-.3-4.9-2.8-9.9-5.7-14.8-8.5-.3-.2-.6-.2-.9 0l-10.2 5.1c-.1.1-.3.1-.5.3 5.3 3 10.4 6 15.6 8.9 3.7-1.8 7.4-3.6 11.2-5.5zm-64 70.1c-.3-.1-.4-.1-.6-.1l-3.9-.3c-2.4-.2-4.9-.4-7.3-.6-.4 0-.7 0-1 .4-3.4 4.4-6.9 8.8-10.4 13.1-.1.2-.2.3-.4.6.8.1 1.5.1 2.3.2 3.2.3 6.3.5 9.5.8.5 0 .8-.1 1.1-.5 3.4-4.3 6.8-8.7 10.3-13 .1-.2.3-.3.4-.6zm52.3 4.3c-.3 0-.6-.1-.8-.1-.8-.1-1.6-.1-2.5-.2-2.9-.2-5.8-.5-8.7-.7-.3 0-.5.1-.7.3-.5.6-1 1.3-1.5 1.9-3 3.7-5.9 7.5-8.9 11.2-.2.2-.4.3-.4.7l3.9.3c2.6.2 5.1.4 7.7.6.5 0 .8-.1 1.1-.5 3.4-4.3 6.8-8.7 10.2-13 .3-.1.5-.3.6-.5zm-49.7 10.9c.9.1 1.6.1 2.4.2 3.1.3 6.2.5 9.4.8.5 0 .8-.1 1.2-.5l10.2-12.9c.1-.2.3-.4.4-.6-.2 0-.4-.1-.6-.1-1.9-.2-3.7-.3-5.6-.4-1.9-.2-3.8-.3-5.6-.5-.5 0-.7.1-1 .4-3.4 4.3-6.9 8.7-10.3 13-.1.2-.3.3-.5.6zm52.3 4.3c.3 0 .4.1.5.1 1.9.2 3.9.3 5.8.5s3.7.3 5.6.4c.4 0 .7-.1.9-.4l10.5-13.2c.1-.1.2-.3.3-.4-.2 0-.2-.1-.3-.1-1.3-.1-2.5-.2-3.8-.3l-7.5-.6c-.5 0-.8.1-1.2.5-3.4 4.3-6.8 8.7-10.2 13-.3 0-.4.2-.6.5zm-81-21.6c-.3-.1-.4-.1-.6-.1l-3.9-.3-7.2-.6c-.5 0-.8.1-1.1.5-3.4 4.4-6.9 8.7-10.3 13-.1.2-.2.3-.4.6.2 0 .4.1.5.1 3.7.3 7.5.6 11.2.9.5 0 .8-.1 1.1-.5 3.4-4.4 6.9-8.7 10.3-13 .1-.2.2-.4.4-.6zm4-41.9c-3.7 1.9-7.4 3.7-11.2 5.6 5.3 3 10.5 6 15.7 9 3.7-1.9 7.4-3.7 11.2-5.6-5.4-3.1-10.5-6.1-15.7-9zm39.1-2.7c-.2-.1-.4-.2-.5-.3-4.9-2.8-9.8-5.6-14.6-8.4-.3-.2-.6-.2-1 0-3.4 1.7-6.8 3.4-10.1 5.1-.2.1-.3.2-.5.3.2.1.3.2.4.3l14.7 8.4c.4.2.6.2 1 0 3.3-1.7 6.6-3.3 10-5 .1-.2.3-.3.6-.4z"/><path class="st1" d="M37.8 741.1c.6 0 1.1.1 1.7.1-.1.8-.1 1.6-.2 2.4-.2 2.3-.4 4.6-.6 6.8-.3 2.8-.5 5.6-.8 8.4-.1.8-.2 1.6-.2 2.5 0 .5-.2.8-.7.9-.4.1-.7.2-1.1.4.7-7.1 1.3-14.2 1.9-21.5zm3.5 19.8c-.6.2-1.1.4-1.8.6.6-6.7 1.2-13.3 1.8-19.9.6-.1.9-.1 1.6 0 .2.6-1.1 16.1-1.6 19.3zm3.6-19.2c.5.1 1 .1 1.6.2-.5 5.9-1 11.8-1.6 17.7-.6.2-1.1.4-1.6.6 0-.6 1.4-17.3 1.6-18.5zm3.5.3c.6.1 1.1.1 1.7.2-.1.8-.1 1.5-.2 2.3-.2 2.3-.4 4.5-.6 6.8l-.6 6.6c0 .4-.2.6-.6.7-.4.1-.8.3-1.3.4.6-5.7 1.1-11.3 1.6-17zm3.5.4c.6 0 1.1.1 1.6.1.2.7-.6 9.6-1.2 14.6-.5.2-1.1.4-1.7.6.4-5.2.9-10.2 1.3-15.3zm4.1 13.4c-.6.2-1.1.4-1.6.6-.1-.5.9-12.8 1.2-13.8.5 0 1.1.1 1.7.1-.6 4.5-1 8.8-1.3 13.1zm1.8-.6c.4-4.1.7-8.1 1.1-12.2.6-.2 1.1 0 1.7.1-.1.8-.1 1.5-.2 2.2-.2 2.4-.4 4.7-.6 7.1-.1.6-.1 1.1-.1 1.7 0 .3-.2.5-.5.6-.4.2-.9.3-1.4.5zm4.6-12c.6.1 1.1.1 1.6.1.1.5-.3 6.3-.8 10-.5.2-1.1.4-1.7.6.3-3.6.6-7.1.9-10.7zm7.1.6c.8.1 1.5.1 2.3.2 0 .6-.1 1.2-.1 1.7-.1 1.4-.3 2.8-.4 4.2 0 .4-.2.6-.6.8-.6.2-1.2.4-1.9.6.2-2.4.4-4.9.7-7.5zm-2.6 8.3c-.6.2-1.1.4-1.8.6.3-3.1.5-6.1.8-9.1.5 0 .9 0 1.3.1.1 0 .2.1.4.1-.2 2.7-.4 5.5-.7 8.3zm-33.3 11.3c.5-7.5 1-14.9 1.5-22.4h.8v.6c-.2 2.8-.5 5.6-.7 8.4-.2 2.7-.5 5.5-.7 8.2-.1 1.6-.3 3.2-.4 4.8 0 .2 0 .4-.5.4zm40-19.2c.6 0 1.1.1 1.7.1-.2 1.7-.3 3.3-.4 5-.6.2-1.1.4-1.8.6.1-1.9.3-3.8.5-5.7zm3.5.3c.6 0 1.1.1 1.7.1-.1 1.2-.2 2.3-.3 3.5-.6.2-1.1.4-1.8.6.2-1.4.3-2.8.4-4.2zm3.6.3c.6.1 1.1.1 1.7.2 0 .6-.1 1.1-.1 1.6 0 .1-.1.3-.3.3-.5.2-.9.3-1.5.5 0-.5.1-.9.1-1.3s0-.8.1-1.3zm3.4 1.3c0-.4 0-.7.1-1 .6 0 1.1.1 1.7.1-.2.5-.5.7-1.8.9zm21.2-8.5h-.7c-.3 0-.6-.1-1-.1.6-6.3 1.1-12.5 1.7-18.8.6-.1 1.1 0 1.6.1.1.6-1.1 15.3-1.6 18.8zm-3.5-19.3c.6.1 1.1.1 1.7.1-.6 6.3-1.1 12.5-1.7 18.8-.6-.1-1.1-.1-1.7-.2.5-6.1 1.1-12.3 1.7-18.7zm5.3 19.5c.6-6.3 1.1-12.6 1.7-18.9.6.1 1.1.1 1.7.2v.6c-.2 2.8-.5 5.6-.7 8.4-.3 3.1-.5 6.1-.8 9.2-.1.6-.2.7-.8.7-.4-.1-.7-.2-1.1-.2zm5.2-18.6c.6.1 1.1.1 1.7.1l-1.5 17.1c-.5.2-1.1.4-1.8.6.5-5.9 1.1-11.8 1.6-17.8zm-13.6-1.1c.4 0 .8.1 1.3.1-.6 6.3-1.1 12.6-1.7 18.8-.5 0-1-.1-1.4-.1-.1-.5 1.5-17.9 1.8-18.8zm17.5 17.1c-.6.2-1.1.4-1.6.6-.1-.6 1.2-15.3 1.4-16.2.5 0 1 .1 1.6.1-.5 5.2-1 10.3-1.4 15.5zm3.1-15.4c.6.1 1.1.1 1.7.1v.5c-.3 3.3-.6 6.6-.9 10-.1 1-.2 2-.3 3.1 0 .4-.1.6-.5.7-.4.1-.8.3-1.3.4.5-5 .9-9.8 1.3-14.8zm3.5.3c.6.1 1.1.1 1.7.2-.4 4.2-.7 8.3-1.1 12.4-.6.2-1.1.4-1.8.6.5-4.4.9-8.7 1.2-13.2zm3.6.3c.6.1 1.2.1 1.9.2-.3 3.6-.6 7.2-1 10.8-.6.2-1.2.4-2 .7.4-4 .7-7.8 1.1-11.7zm5.4.5c-.3 3.2-.6 6.2-.8 9.3-.6.2-1.1.4-1.8.6.3-3.4.6-6.6.9-10 .6 0 1.1 0 1.7.1zm1.8.1c.6 0 1.1.1 1.7.1 0 .5-.1 1-.1 1.5-.2 1.9-.4 3.8-.5 5.6 0 .4-.2.7-.6.8-.4.1-.7.2-1.2.4.2-2.8.4-5.5.7-8.4zm3.6.3c.5.1 1 .1 1.6.2-.1 2.1-.3 4.1-.5 6.2-.5.2-1.1.4-1.6.6-.2-.6.2-5.5.5-7zm3.4.3c.6.1 1.1.1 1.7.2-.1 1.6-.3 3.1-.4 4.6-.6.2-1.1.4-1.8.6.2-1.8.4-3.6.5-5.4zm3.2 4.1c.1-1.3.2-2.5.3-3.8.6 0 1.1.1 1.7.1-.1 1-.1 1.9-.2 2.8 0 .1-.2.3-.3.3-.4.3-.9.5-1.5.6zm5.4-1.8c-.6.2-1.1.4-1.8.6.1-.8.1-1.5.2-2.2.6 0 1.1.1 1.7.1 0 .5 0 .9-.1 1.5zm3.3-1.1c-.4.1-.8.3-1.3.4v-.7c.4 0 .9.1 1.3.1v.2zm-79.9 12c-.8-.1-1.5-.1-2.3-.2.6-6.3 1.1-12.5 1.7-18.7.8.1 1.5.1 2.2.2.1.5-1.3 16.9-1.6 18.7zm10.5-18h.9c.2 0 .5.1.8.1-.5 6.2-1.1 12.4-1.7 18.7-.6 0-1.1-.1-1.7-.1.6-6.2 1.2-12.4 1.7-18.7zm3.6 19.2c-.6-.1-1.1-.1-1.7-.2.6-6.3 1.1-12.5 1.7-18.8.6.1 1.1.1 1.7.2-.6 6.3-1.2 12.5-1.7 18.8zm-10.5-1h-.8c-.3 0-.6-.1-.9-.1.6-6.2 1.1-12.4 1.7-18.7.6 0 1.1.1 1.7.1-.6 6.3-1.2 12.5-1.7 18.7zm3.5.4c-.6 0-1.1-.1-1.6-.1-.1-.6 1.3-17.5 1.6-18.8.5 0 1 .1 1.6.1-.5 6.3-1.1 12.5-1.6 18.8zm-11.3-19.9c.6 0 1.1.1 1.7.1-.6 6.3-1.1 12.5-1.7 18.7-.6 0-1.1-.1-1.7-.1.6-6.2 1.2-12.4 1.7-18.7zm-3.4-.3c.5 0 1 .1 1.6.1-.6 6.3-1.1 12.5-1.7 18.7-.6 0-1.1-.1-1.6-.1l-.1-.1v-.7c.5-6 1.1-11.9 1.6-17.9.1.2.2.1.2 0zm-3.5 18.6c-.6 0-1.1-.1-1.7-.1.6-6.3 1.1-12.5 1.7-18.7.3 0 .6 0 .9.1.3 0 .5.1.8.1-.6 6.1-1.2 12.3-1.7 18.6zm-7.1-.6c-.6-.1-1.1-.1-1.7-.2.5-6.2 1.1-12.4 1.7-18.7.6 0 1.1.1 1.7.1-.6 6.3-1.1 12.5-1.7 18.8zm3.5.3c-.5 0-1-.1-1.6-.1.6-6.2 1.1-12.4 1.7-18.6.6-.1 1.1 0 1.6.1 0 .4-1.5 17.5-1.7 18.6zm-7-19.5c.6.1 1.1.1 1.7.1-.6 6.2-1.1 12.4-1.7 18.7-.3 0-.6 0-.9-.1-.3 0-.5 0-.9-.1.7-6.1 1.2-12.3 1.8-18.6zm-7 18.3c-.6-.1-1.1-.1-1.7-.2.6-6.2 1.1-12.4 1.7-18.6h.5c.4 0 .8.1 1.3.1-.7 6.2-1.2 12.4-1.8 18.7zm-3.5-.3c-.6-.1-1.1-.1-1.7-.2.6-6.2 1.1-12.4 1.7-18.6.6 0 1.1.1 1.7.1-.6 6.3-1.2 12.4-1.7 18.7zm7 .6c-.6 0-1.1-.1-1.7-.1.6-6.3 1.1-12.4 1.7-18.6.1 0 .2-.1.3 0 .4 0 .9.1 1.4.1-.6 6.1-1.1 12.3-1.7 18.6zm-10.3-19.7c.5 0 .9.1 1.5.1-.5 6.2-1.1 12.4-1.6 18.6h-.9c-.1-.5.2-6.2.5-9.3.1-3.1.2-6.2.5-9.4zm53.1 4.4c.4 0 .7.1 1.1.1.1.5-1.6 18.1-1.8 18.8-.3 0-.5-.1-.9-.1.4-6.2 1-12.4 1.6-18.8z"/></g><g id="Calque_6"><path class="st1" d="M168.7 888.8v1.3c-.2 3.6-.3 7.2-.5 10.7-.2 4.9-.5 9.9-.7 14.8-.2 3.2-.3 6.4-.5 9.6l-.6 12.3c-.1 3-.3 6.1-.4 9.1l-.6 12.9c-.1 3.1-.3 6.1-.4 9.2-.2 4.3-.4 8.5-.6 12.8-.1 1.2-.1 2.4-.2 3.5 0 .2 0 .4-.1.7h-1.6l-6.9-.3c-4.6-.2-9.1-.4-13.7-.6-3.3-.2-6.6-.3-9.9-.5-4.2-.2-8.5-.4-12.7-.6-2.1-.1-4.3-.2-6.4-.3-5.5-.3-10.9-.5-16.4-.8-3.2-.2-6.4-.3-9.7-.4-4.4-.2-8.7-.4-13.1-.6l-6.6-.3c-4.4-.2-8.8-.4-13.3-.6-3.2-.1-6.4-.3-9.5-.4l-13.2-.6-7.2-.3c-.7 0-1.3-.1-2.1-.1v-.7c.2-4.9.5-9.9.7-14.8.2-3 .3-6.1.4-9.1.2-4.3.4-8.5.6-12.8.1-3 .3-6 .4-8.9.2-4.4.4-8.7.6-13.1.1-3.1.3-6.2.4-9.3.2-4.2.4-8.4.6-12.7.1-3 .3-6 .4-8.9.1-1.6.2-3.2.2-4.8 0-.4 0-.8-.2-1.1-2.3-6.9-4.5-13.7-6.8-20.6-.1-.3-.2-.5-.3-.9 44.2-14.8 88.4-29.6 132.7-44.4 3.4 7.8 6.9 15.5 10.3 23.3-.3.1-.5.2-.7.3-31.4 10.4-62.7 20.8-94.1 31.1-9.7 3.2-19.5 6.5-29.2 9.7-1 .3-2.1.4-3.1.6-.4.1-.7.1-1.1.3.2 0 .5.1.7.1 1 .1 2.1.1 3.1.2 4.3.2 8.7.4 13 .6 5.8.3 11.5.5 17.3.8 3.7.2 7.5.4 11.2.5 5.8.3 11.5.5 17.3.8 3.7.2 7.4.3 11.1.5 5.1.2 10.2.5 15.3.7 3.4.2 6.7.3 10.1.5l12.6.6c3.2.2 6.4.3 9.5.4 4.2.2 8.4.4 12.5.6.6-.1 1-.1 1.4 0zM31.4 937.4c-.1.7-1.9 34.1-1.7 34.6h.3c3 .1 6 .3 9 .4 3.2.1 6.3.3 9.5.4l13.5.6c3.1.1 6.1.3 9.2.4 4.6.2 9.1.4 13.7.6l6.3.3c4.4.2 8.9.4 13.3.6 2.2.1 4.4.2 6.5.3 4.3.2 8.7.4 13 .6 3.2.2 6.5.3 9.7.4 4.6.2 9.2.4 13.7.6l6.9.3h2.5c.2-.7 1.8-34.1 1.7-34.6h-.3c-2.9-.1-5.9-.3-8.8-.4-3.3-.2-6.5-.3-9.8-.4l-13.8-.6c-2-.1-4.1-.2-6.1-.3-4.3-.2-8.7-.4-13-.6-3.2-.2-6.5-.3-9.7-.4l-13.8-.6c-2.1-.1-4.1-.2-6.2-.3-4.4-.2-8.7-.4-13.1-.6-3.2-.2-6.4-.3-9.6-.4-4.6-.2-9.1-.4-13.7-.6l-6.9-.3c-.8-.1-1.5 0-2.3 0zm128.7-24.1c-20.8-1-41.6-2-62.4-2.9-.4 9.2-.9 18.3-1.3 27.4 1.2.2 61.8 3 62.3 2.9.5-9.1 1-18.2 1.4-27.4zm-64.9-3c-20.9-1-41.6-2-62.3-2.9-.2.7-1.4 26.9-1.3 27.5 20.7 1 41.5 1.9 62.4 2.9.4-9.2.8-18.3 1.2-27.5zm16.5-4.3c.3 0 .6.1.8.1 1.6.1 3.2.2 4.8.2l6.3.3c.4 0 .6-.1.8-.4.4-.6.9-1.2 1.3-1.8 2.9-3.9 5.8-7.8 8.6-11.7.1-.2.4-.3.3-.6h-.2c-3.9-.2-7.7-.4-11.6-.6-.5 0-.7.1-1 .5-3.3 4.5-6.6 8.9-9.8 13.4 0 .2-.1.4-.3.6zm-26.2-1.2c.3 0 .5.1.8.1 3.7.2 7.5.3 11.2.5.3 0 .5-.1.7-.3.4-.5.8-1 1.1-1.6 2.9-4 5.9-7.9 8.8-11.9.1-.2.4-.4.4-.7h-.2l-11.7-.6c-.4 0-.6.1-.9.4-3.3 4.5-6.6 9-10 13.5 0 .2 0 .4-.2.6zm17.1-65.7c.2.2.3.3.5.4 4.4 3.4 8.8 6.9 13.2 10.3.3.3.6.3 1 .2 3.5-1.2 7-2.3 10.6-3.5.2-.1.4-.2.7-.3-.2-.2-.3-.3-.5-.4-4.4-3.4-8.8-6.9-13.2-10.3-.4-.3-.7-.3-1.1-.2-3.5 1.2-7 2.3-10.6 3.5-.1.1-.3.2-.6.3zm58.4 54.3c-.3 0-.5-.1-.7-.1-.7 0-1.3-.1-2-.1-3.1-.1-6.2-.3-9.3-.4-.3 0-.5.1-.7.3-.4.6-.9 1.3-1.4 1.9-2.8 3.9-5.7 7.7-8.5 11.6-.1.2-.4.4-.3.7h.2c3.8.2 7.6.4 11.4.5.5 0 .8-.1 1.2-.5 3.3-4.5 6.5-8.9 9.8-13.3 0-.2.1-.4.3-.6zm-57.3-38.9c-.2-.2-.4-.3-.5-.4-4.4-3.4-8.8-6.9-13.2-10.3-.3-.2-.6-.3-1-.2-3.6 1.2-7.2 2.4-10.7 3.6-.2.1-.3.1-.5.2.2.2.3.3.5.4 4.4 3.4 8.8 6.9 13.2 10.3.3.3.6.3 1 .2 3.5-1.2 7.1-2.4 10.6-3.5.1-.1.3-.2.6-.3zM54 870.9c-.2-.1-.3-.2-.4-.2l-13.5-10.5c-.3-.2-.5-.2-.9-.1l-10.8 3.6c-.2.1-.3.1-.5.2l.4.4c4.4 3.5 8.9 6.9 13.3 10.4.3.2.6.3 1 .2 3.6-1.2 7.1-2.4 10.7-3.5.1-.2.3-.3.7-.5zm-1.2-15.3l.4.4c4.4 3.5 8.9 6.9 13.3 10.4.3.3.6.3 1 .2 3.5-1.2 7.1-2.3 10.6-3.5.2-.1.4-.1.6-.2-.2-.2-.3-.3-.5-.4-4.4-3.4-8.8-6.9-13.2-10.3-.3-.3-.6-.3-1-.2-2.6.9-5.2 1.7-7.8 2.6-1.1.2-2.2.6-3.4 1zM153.5 838c-.2-.2-.4-.3-.5-.5-4.4-3.4-8.8-6.8-13.1-10.3-.4-.3-.6-.3-1.1-.2-3.5 1.2-7 2.3-10.6 3.5-.2.1-.4.2-.7.3.2.2.3.3.5.4 4.4 3.4 8.8 6.9 13.2 10.3.4.3.7.3 1.1.2 3.5-1.2 7-2.3 10.6-3.5.1 0 .3-.1.6-.2zm-94.2 65.6c.3 0 .4.1.6.1 3.7.2 7.5.3 11.2.5.5 0 .8-.1 1-.5 3.3-4.5 6.6-8.9 9.8-13.4.1-.2.2-.4.4-.6-.3 0-.4-.1-.6-.1-3.7-.2-7.5-.3-11.2-.5-.5 0-.8.1-1 .5-3.3 4.5-6.6 8.9-9.8 13.4-.1.1-.2.3-.4.6zm-3.1-15.1c-.4 0-.6-.1-.8-.1-1.4-.1-2.8-.1-4.1-.2l-6.9-.3c-.5 0-.8.1-1 .5-3.3 4.5-6.6 8.9-9.8 13.4-.1.2-.2.4-.4.6.2 0 .3.1.4.1 3.8.2 7.6.3 11.3.5.5 0 .8-.1 1.2-.6 3.2-4.4 6.5-8.9 9.8-13.3 0-.2.1-.4.3-.6z"/><path class="st1" d="M38.6 962.5c.4-7.3.8-14.4 1.2-21.5.6-.1 1.1-.1 1.7 0v.7c-.2 4.4-.5 8.8-.7 13.2l-.3 6.3c0 .5-.2.8-.7.9-.4.1-.7.3-1.2.4zm3.7-1.3c.4-6.7.7-13.4 1.1-20.1.6 0 1.1.1 1.6.1v2l-.3 6.3c-.2 3.5-.4 7.1-.6 10.6 0 .4-.1.6-.5.7-.4 0-.8.2-1.3.4zm3.6-1.4c.3-6.2.7-12.3 1-18.4h1.6c0 .1.1.2.1.3-.1 2.6-.3 5.3-.4 7.9l-.3 5.7c-.1 1.1-.1 2.2-.2 3.3 0 .4-.1.6-.5.7-.5.1-.8.3-1.3.5zm3.6-1.4c.3-5.7.6-11.3.9-16.9h1.7v1.4c-.2 2.9-.3 5.8-.5 8.6l-.3 5.7c0 .3-.1.5-.4.6-.5.2-.9.4-1.4.6zm4.4-16.8c.6 0 1.1.1 1.6.1v2.3c-.1 2.2-.2 4.4-.4 6.5-.1 1.8-.2 3.6-.3 5.3 0 .3-.1.5-.5.6s-.8.3-1.2.4H53v-.5c.4-4.8.6-9.7.9-14.7zm2.8 14.1c.3-4.7.5-9.2.7-13.8h.5c.4 0 .7 0 1.2.1v.6c-.2 4-.4 8-.6 12.1 0 .3-.1.5-.5.6-.4 0-.8.2-1.3.4zm4.3-13.6h1.7c-.2 3.9-.4 7.7-.6 11.5-.5.2-1.1.4-1.8.7.2-4.1.4-8.2.7-12.2zm4.7 10.1c-.6.2-1.1.4-1.8.7.2-3.6.4-7.1.6-10.8.6 0 1.1.1 1.7.1-.2 3.4-.4 6.7-.5 10zm5.4-2.1c.1-2.6.3-5.1.4-7.6.8 0 1.5.1 2.3.1v1.5c-.1 1.5-.2 3-.2 4.5 0 .4-.2.6-.6.8-.6.2-1.2.5-1.9.7zm-3.6 1.4c.2-3.1.3-6.1.5-9.1h1.7v.6c-.1 2.5-.3 5-.4 7.4 0 .3-.1.5-.4.5-.4.2-.8.4-1.4.6zm-30.4-10.7h.8c0 .1.1.3.1.4-.2 4.2-.5 8.4-.7 12.6-.2 2.9-.3 5.7-.5 8.6v.6c0 .1-.2.3-.2.4-.1 0-.1 0-.2-.1v-.9c.2-7.1.5-14.3.7-21.6zm40 7.1c-.6.2-1.1.4-1.8.7.1-2 .2-3.8.3-5.7h1.7c0 1.6-.1 3.3-.2 5zm2.1-4.9h1.7c-.1 1.2-.1 2.3-.2 3.5-.5.2-1.1.4-1.7.7.1-1.5.1-2.8.2-4.2zm5.2.2v1.6c0 .1-.1.3-.3.4-.5.2-.9.4-1.4.6 0-.2-.1-.2 0-.3 0-.7.1-1.5.1-2.3.5-.2 1 0 1.6 0zm3.6.2c-.3.5-1 .8-1.8.9 0-.3 0-.6.1-.9H88zm19.1-8.4h-1.7c.3-6.3.7-12.5 1-18.8.6-.1 1.1-.1 1.7 0-.3 6.3-.6 12.6-1 18.8zm-4.2-19h1.7c-.1 3.2-.3 6.3-.5 9.4-.2 3.1-.3 6.2-.5 9.5-.6 0-1.1-.1-1.7-.1.3-6.3.7-12.5 1-18.8zm6 19.2c.3-6.3.7-12.6 1-18.9.6 0 1.1.1 1.6.1v.5l-.9 16.5c0 .4-.1.8-.1 1.3s-.1.6-.6.6h-.3c-.1-.1-.3-.1-.7-.1zm4.6-18.7h1.7l-.9 17.1c-.6.2-1.1.4-1.8.7.3-6 .7-11.9 1-17.8zm3.5.2h1.6c.1.6-.4 12.6-.7 15.6-.5.2-1.1.4-1.7.7.2-5.5.5-10.9.8-16.3zm-17.2-.9c.5 0 .8.1 1.2.1.1.5-.7 17.4-.9 18.8-.5.1-.9 0-1.5 0 .4-6.4.8-12.6 1.2-18.9zm21.7 15.1c-.6.2-1.1.4-1.8.7.3-5 .5-9.8.8-14.8.6 0 1.1.1 1.7.1-.2 4.7-.5 9.3-.7 14zm2.6-13.8h1.6c.1.6-.4 10.6-.6 12.5-.5.2-1.1.4-1.7.7.2-4.5.4-8.9.7-13.2zm3.5.1h1.9c-.2 3.6-.4 7.2-.6 10.9-.6.2-1.3.5-2 .8.3-4 .5-7.8.7-11.7zm3.7.1c.6 0 1.1.1 1.7.1-.2 3.1-.3 6.1-.5 9.3-.5.2-1.1.4-1.7.7-.1-1.1.1-2.2.1-3.3.1-1.1.1-2.2.2-3.3.1-1.2.1-2.3.2-3.5zm5.2.3c-.1 2.6-.3 5.1-.4 7.7-.5.2-1.1.4-1.6.6-.2-.6.1-6.4.4-8.4.5 0 1 .1 1.6.1zm1.5 7c.1-2.4.2-4.6.4-6.9h1.6c.2.6 0 3.8-.2 6.2-.6.3-1.2.5-1.8.7zm5.6-6.6c-.1 1.6-.2 3.1-.2 4.6-.5.2-1.1.4-1.7.7.1-1.9.2-3.6.3-5.4.5 0 1 0 1.6.1zm3.5.2c-.1 1-.1 1.9-.2 2.7 0 .1-.1.3-.3.4-.4.2-.9.4-1.4.6-.1-1.3.1-2.5.1-3.8.7 0 1.2 0 1.8.1zm1.9.1h1.6v1.5c-.6.2-1.1.4-1.6.6-.2-.4-.2-1.5 0-2.1zm3.5.8v-.7c.5 0 .9 0 1.3.1v.1c-.4.2-.9.3-1.3.5zm-77.1-4.6c-.3 6.3-.7 12.5-1 18.7H72c.3-6.3.7-12.5 1-18.7h2.4zm12.4.7h1.3c.1 0 .3.1.4.1-.3 6.2-.7 12.5-1 18.8-.6 0-1.1-.1-1.7-.1.3-6.3.6-12.5 1-18.8zm-6.4 18.5h-1.2c-.2 0-.3-.1-.5-.1.3-6.2.7-12.5 1-18.8.6 0 1.1.1 1.6.1.2.6-.7 17.1-.9 18.8zm2.8-18.6h1.7c-.3 6.3-.7 12.5-1 18.8h-1.7c.4-6.3.7-12.5 1-18.8zm-16.5-.9c-.3 6.3-.7 12.5-1 18.7H65c.3-6.3.7-12.5 1-18.7h1.7zm1.9.1c.5 0 1 .1 1.6.1-.3 6.3-.7 12.5-1 18.8-.6 0-1.1-.1-1.6-.1-.1-.5.8-18 1-18.8zm7.7.4h1c.2 0 .4 0 .6.1.1.5-.8 18.2-1 18.8-.5 0-1-.1-1.5-.1-.2-.6.6-17.4.9-18.8zm-21.2 17.7c-.6 0-1.1-.1-1.7-.1.3-6.3.7-12.5 1-18.7h1.7c-.3 6.3-.6 12.5-1 18.8zm6.4-18.5c.6 0 1.1.1 1.7.1-.3 6.3-.7 12.5-1 18.8-.6 0-1.1-.1-1.7-.1.3-6.3.6-12.5 1-18.8zm-2.9 18.6h-1.5c-.1-.5.8-18 1-18.8.5 0 1 .1 1.5.1.1.6-.8 17.4-1 18.7zm-14.7-19.4h1.7c-.3 6.3-.7 12.4-1 18.7-.6 0-1.1-.1-1.7-.1.3-6.2.6-12.4 1-18.6zm3.5.1c.6 0 1.1.1 1.7.1-.3 6.2-.7 12.4-1 18.6h-1.7c.3-6.2.7-12.4 1-18.7zm4.2 19c-.6 0-1.1-.1-1.7-.1.3-6.2.7-12.4 1-18.7h.9c.3 0 .5 0 .9.1-.4 6.2-.7 12.4-1.1 18.7zm-11.3-19.3H43c-.3 6.2-.7 12.4-1 18.6h-.4c-.4 0-.8 0-1.3-.1.4-6.1.7-12.3 1-18.5zm-3.2-.2c.5 0 1 .1 1.5.1-.3 6.2-.7 12.4-1 18.6H38c-.2 0-.3 0-.5-.1.2-6.1.4-12.3.6-18.6zm53.2 2.6c.4 0 .8.1 1.2.1-.4 6.3-.8 12.5-1.2 18.8h-1c.3-6.3.6-12.5 1-18.9z"/></g><g id="Calque_7"><path class="st1" d="M168.8 1084.1c-.5 32.4-.9 64.7-1.4 97.1L25 1179.4v-.7c.2-11.9.3-23.9.5-35.8.1-5.2.1-10.4.2-15.6l.6-39.2c0-1.4.1-2.8.1-4.3 0-.5 0-1.1-.2-1.6-.3-.7-.3-1.5-.4-2.2-1.1-5.9-2.1-11.8-3.2-17.7-.1-.8-.3-1.6-.4-2.3v-.1c.1 0 .3-.1.4-.1 45.7-8.3 91.3-16.6 137.1-24.9 2.3 8.2 4.6 16.3 6.9 24.5-42.8 7.7-85.6 15.3-128.3 23v.1c.2 0 .3.1.5.1 1.4 0 2.8.1 4.2.1l48.2.6c10.7.1 21.4.3 32.2.4 10.7.1 21.4.3 32.1.4 4.2.1 8.3.1 12.5.2.3-.3.5-.2.8-.2zm-136.1 88c42.5.5 84.9 1.1 127.4 1.6.2-11.6.4-23.2.5-34.8-14.2-.2-28.3-.3-42.5-.5s-28.3-.3-42.5-.5c-17-.3-41.9-.6-42.5-.4-.1 11.4-.3 22.9-.4 34.6zm65.5-36.6c1 .2 61.9.9 62.4.7.1-4.5.1-9.1.2-13.6.1-4.6.2-9.1.2-13.7-20.8-.3-41.6-.5-62.4-.8-.1 9.2-.2 18.3-.4 27.4zm-2.5.1c0-.1.1-.2.1-.3.1-8.9.2-17.8.4-26.8v-.4l-.1-.1c-20.7-.3-41.5-.5-62.2-.8-.2 1-.5 26.9-.4 27.5 20.6.4 41.4.6 62.2.9zm43-32c.2 0 .3.1.4.1 3.9.1 7.7.1 11.6.2.3 0 .5-.2.7-.4 3.2-4.7 6.4-9.4 9.6-14 .1-.1.1-.3.2-.4h-.6c-3.7 0-7.4-.1-11.1-.1-.5 0-.8.1-1.1.6-3.1 4.6-6.2 9.1-9.3 13.7-.1-.2-.3 0-.4.3zm-52.5-.7c.2 0 .3.1.4.1 3.9.1 7.8.1 11.7.2.3 0 .5-.1.7-.4 3.2-4.7 6.4-9.4 9.6-14 .1-.1.1-.3.2-.4h-.7c-3.7 0-7.3-.1-11-.2-.5 0-.8.2-1.1.6-3.1 4.6-6.2 9.1-9.3 13.6-.2.1-.3.3-.5.5zm-5.2-33.3l-.4-.4c-3.9-4.1-7.8-8.1-11.7-12.2-.3-.3-.5-.3-.9-.3-2.9.5-5.8 1-8.7 1.6l-3 .6c.2.2.3.4.5.6 3.8 4 7.7 8 11.5 12 .3.3.6.5 1.1.4 3.5-.6 7.1-1.3 10.6-1.9.3-.3.6-.4 1-.4zm1.1-15.5l.7.7 7.8 8.1c1.2 1.3 2.5 2.6 3.7 3.8.2.2.4.4.7.3l11.4-2.1c.1 0 .3-.1.5-.1-.1-.2-.2-.3-.3-.4-3.9-4.1-7.8-8.1-11.7-12.2-.3-.3-.5-.4-.9-.3-3.1.6-6.3 1.1-9.4 1.7-.9.3-1.6.4-2.5.5zm-25.7 33.5h-.8c-3.7 0-7.3-.1-11-.1-.4 0-.7.1-1 .5-3.1 4.6-6.3 9.2-9.4 13.8-.1.2-.2.3-.3.6h.6c3.8 0 7.5.1 11.3.1.4 0 .7-.1.9-.5 3.1-4.6 6.3-9.2 9.4-13.8 0-.1.1-.3.3-.6zm77.4-42.7c.2.3.4.4.5.6 3.8 4 7.6 7.9 11.4 11.9.4.4.7.5 1.2.4 3.7-.7 7.4-1.3 11.1-2 .1 0 .2-.1.3-.1-.1-.1-.1-.2-.1-.2-4-4.2-8-8.3-12-12.5-.2-.2-.5-.3-.8-.2-2.2.4-4.3.8-6.5 1.2-1.6.2-3.3.6-5.1.9zm-1.1 15.4c-.2-.2-.3-.4-.4-.5-3.9-4-7.7-8-11.5-12-.3-.3-.6-.5-1.1-.4-3.2.6-6.3 1.1-9.5 1.7-.7.1-1.3.3-2.1.4.2.2.3.4.5.6 3.8 4 7.7 8 11.5 12 .3.3.6.4 1.1.4 2.9-.5 5.8-1 8.7-1.6.8-.2 1.7-.4 2.8-.6zm-77.5 13.9c-.3-.3-.5-.5-.6-.7-3.8-3.9-7.6-7.9-11.4-11.8-.4-.4-.7-.5-1.2-.4-3.7.7-7.3 1.3-11 2-.2 0-.3.1-.5.2.1.2.2.3.3.4 3.9 4.1 7.8 8.1 11.7 12.2.3.3.5.4.9.3 2.6-.5 5.3-1 7.9-1.4 1.4-.3 2.6-.6 3.9-.8zm57.3 29.1c.2 0 .3.1.4.1 3.9 0 7.7.1 11.6.2.4 0 .6-.1.8-.4 3.2-4.6 6.4-9.3 9.5-13.9.1-.1.2-.3.3-.5h-.5c-3.8 0-7.6-.1-11.4-.2-.4 0-.7.2-.9.5-3.1 4.6-6.3 9.1-9.4 13.7-.2 0-.3.2-.4.5zm-52.5-.7c.2 0 .3.1.4.1 3.9 0 7.7.1 11.6.2.4 0 .6-.1.8-.4 3.2-4.6 6.4-9.3 9.5-13.9.1-.1.2-.3.3-.5h-.5c-3.8 0-7.6-.1-11.4-.2-.4 0-.7.2-.9.5-3.1 4.6-6.3 9.2-9.4 13.8-.2 0-.3.2-.4.4z"/><path class="st1" d="M41.8 1140.7h1.8c-.1 7-.3 13.9-.4 20.9-.5.2-1.1.5-1.7.7 0-7.3.2-14.4.3-21.6zm3.5 0H47v.8l-.3 13.5c0 1.5-.1 3-.1 4.5 0 .4-.1.6-.5.7s-.8.3-1.2.5c.2-6.7.3-13.3.4-20zm4.9 17.9c-.5.2-1.1.4-1.6.7-.2-.6.2-17.7.3-18.4h1.6c-.1 5.8-.2 11.7-.3 17.7zm2.3-17.8h1.7c-.1 5.5-.2 10.8-.3 16.2-.5.2-1.1.4-1.6.7-.3-.5 0-15.8.2-16.9zm3.4.1h1.7l-.3 14.7c-.6.2-1.1.5-1.7.7.1-5.2.2-10.3.3-15.4zm3.5.1h1.7v.8c-.1 3.9-.2 7.9-.2 11.8 0 .4-.1.6-.5.7s-.8.3-1.3.5c.1-4.7.2-9.2.3-13.8zm3.3 12.3c.1-4.1.2-8.2.2-12.2.6-.1 1.1-.1 1.7 0v.7c-.1 3.4-.1 6.8-.2 10.2 0 .4-.1.7-.6.8-.3.1-.6.3-1.1.5zm5.3-2.2c-.6.2-1.1.5-1.7.7.1-3.6.1-7.1.2-10.7.6-.1 1.1-.1 1.7 0-.1 3.3-.1 6.6-.2 10zm5.5-9.9h2.2c.1.6.1 5.4-.1 6.6-.7.3-1.4.6-2.3 1 .1-2.6.2-5.1.2-7.6zm-3.5-.1h1.7c-.1 2.9-.1 5.6-.2 8.5-.5.2-1.1.5-1.7.7.1-3.1.1-6.1.2-9.2zm-30.8-.5h.8v.6c-.1 6.4-.2 12.8-.4 19.1v2.3c0 .2 0 .5-.4.5v-22.5zm38.5.7h1.6c.1.5.1 3.5 0 5-.5.2-1 .4-1.7.7 0-2 .1-3.8.1-5.7zm5.2 0v3.4c-.5.2-1 .4-1.6.7-.1-.5-.1-3.4 0-4.1h1.6zm1.8.1h1.7v1.9c-.6.2-1.1.5-1.7.7v-2.6zm3.6.1H90c-.1.4-.6.7-1.7 1v-1zm20.5-9h-1.6c0-3.2.1-6.3.2-9.4s.1-6.3.2-9.5h1.6c.1.6-.3 18.3-.4 18.9zm-3.5-.1h-1.6c.1-6.3.3-12.6.4-18.9h1.6c0 .5-.3 17.9-.4 18.9zm5.8-18.8h1.6v.8c-.1 5.8-.2 11.5-.4 17.3 0 .8-.1.9-.9.9h-.7c0-.6.3-18.1.4-19zm3.1 18c.1-6 .2-11.9.4-17.9.6-.1 1.1 0 1.7 0v.8l-.3 13.9v1.9c0 .4-.1.6-.5.7-.4.2-.7.3-1.3.6zm-12.4.7h-1.4c-.1-.6.3-17.7.5-18.8h1.3c0 3.1-.1 6.3-.1 9.4-.2 3.1-.2 6.3-.3 9.4zm17.7-2.9c-.5.2-1 .4-1.7.7.1-5.5.2-10.9.3-16.3h1.5c.1 0 .1.1.1.1v.3l-.3 14.9c.1 0 .1.1.1.3zm3.6-1.6c-.6.2-1.1.5-1.7.7.1-5 .2-9.8.3-14.8h1.7c-.1 4.8-.2 9.4-.3 14.1zm1.8-.7c.1-4.5.2-8.8.3-13.2h1.6v.5c-.1 3.8-.1 7.5-.2 11.3 0 .5-.2.7-.6.9-.3.1-.6.3-1.1.5zm5.5-2.3c-.7.3-1.2.5-2 .8.1-4 .2-7.8.2-11.7h1.9c0 3.6 0 7.2-.1 10.9zm2-10.8h1.7c0 .2.1.4.1.5-.1 2.7-.1 5.4-.2 8.1 0 .5-.2.7-.6.9-.4.1-.7.3-1.1.5 0-3.4.1-6.7.1-10zm3.4 8.5c.1-2.9.1-5.7.2-8.5h1.7c0 2.6-.1 5.1-.1 7.7-.6.3-1.2.5-1.8.8zm5.3-2.2c-.5.2-1.1.5-1.7.7 0-2.4.1-4.6.1-6.9h1.7c-.1 2.1-.1 4.1-.1 6.2zm3.5-1.5c-.5.2-1.1.4-1.7.7 0-1.8.1-3.5.1-5.3.5-.2 1.1-.1 1.6-.1.1.5.1 3.3 0 4.7zm3.6-4.6v3.1c-.5.2-1.1.5-1.7.7v-3.8h1.7zm3.5.1v1.2c0 .1-.1.3-.2.3l-1.5.6c0-.2-.1-.3-.1-.3v-1.8c.7-.1 1.3-.1 1.8 0zm1.9 0h1.3v.1c-.4.2-.9.4-1.4.6.1-.3.1-.5.1-.7zm-79.4-1.2h2.1s.1 0 .1.1v.4c-.1 6.1-.2 12.2-.4 18.3-.8.1-1.5 0-2.2 0-.1-.6.2-17.7.4-18.8zm11.1.1H87c-.1 6.3-.3 12.5-.4 18.8h-1.7c.2-6.2.3-12.5.4-18.8zm-7.4 18.7c.1-6.3.3-12.5.4-18.8H80c-.1 6.3-.3 12.5-.4 18.8h-1.7zm-5.6-18.9c-.1 6.3-.2 12.5-.4 18.7h-1.7c.1-6.3.2-12.5.4-18.7.5-.1 1 0 1.7 0zm17.9 19.1h-1.8c.1-6.3.2-12.5.4-18.8h1.7l-.3 18.8zm-8.4-18.9h1.7c-.1 6.3-.3 12.5-.3 18.8h-1.7c0-6.3.2-12.5.3-18.8zm-20.5 18.4h-1.6c.1-6.2.3-12.5.4-18.8h1.6c0 .6-.3 17.8-.4 18.8zm3.6 0h-1.7c.1-6.3.2-12.5.4-18.7h1.7c-.2 6.3-.3 12.5-.4 18.7zM67 1113h1.6c.1.5-.2 17.9-.3 18.7h-1.6c.1-6.3.2-12.5.3-18.7zm-9.2 18.5h-1.7c.1-6.2.2-12.4.4-18.7h1.7c-.1 6.2-.3 12.4-.4 18.7zm-7-.1h-1.7c.1-6.2.2-12.4.4-18.7h1.7c-.2 6.2-.3 12.5-.4 18.7zm-7.2-.2H42c.1-6.2.3-12.4.4-18.7H44c.1.6-.2 18-.4 18.7zm9.4-18.5h1.6c-.1 6.2-.2 12.4-.4 18.7h-1.6c-.1-.6.3-18.2.4-18.7zm-5.8 18.6h-1.7c.1-6.2.3-12.4.3-18.6.6-.2 1.1-.1 1.7 0 0 6.2-.2 12.4-.3 18.6zm-8.1-18.8h1.4c-.1 6.2-.2 12.4-.4 18.6h-1c0-.4-.1-17.6 0-18.6zm53.3.8h1.2c-.2 6.3-.4 12.5-.6 18.8h-1c.1-6.2.2-12.5.4-18.8z"/></g><g id="Calque_8"><path class="st1" d="M199.8 1399.7v-200.1s.1 0 .1.1v199.5c.1.1.2.3-.1.5zm-34.1-145.1c.1 1.1.3 2.1.4 3.1.3 2.8.7 5.7 1 8.5s.7 5.5 1 8.3c.2 1.5.3 2.9.6 4.4.2 1.1.2 2.2.2 3.2l.6 31.2.3 16.9.6 29.1.3 16.3v.7h-.8c-7.3.2-14.5.3-21.8.5-8.3.2-16.5.4-24.8.5-6 .1-11.9.3-17.9.4-8.3.2-16.6.4-24.9.5-5.9.1-11.8.3-17.7.4-10.4.2-20.8.5-31.2.7h-3.3c0-.3 0-.6-.1-.9l-.3-17.6-.6-29.4-.6-31.6-.3-14.8c-.2-6.4-.3-12.8-.5-19.2-.1-2.4-.1-4.8-.2-7.2v-.6c.2 0 .4 0 .6-.1 6.2-.1 12.3-.3 18.5-.4 7.3-.2 14.6-.4 21.9-.5 7-.2 14.1-.3 21.1-.5 9.1-.2 18.2-.5 27.3-.7 7-.2 14.1-.3 21.1-.5 7.3-.2 14.7-.4 22-.5 2.2-.1 4.4-.1 6.7-.2h.8zm-3.3 79.8h-.9c-7 .2-14 .3-20.9.5l-15.6.3-27.1.6-15.6.3-26.5.6c-6.7.1-13.5.3-20.2.4-.2 0-.4 0-.6.1.2 11.6.4 23.1.7 34.7h.6c2.5-.1 5-.1 7.5-.2 6-.1 11.9-.3 17.9-.4 10.3-.2 20.6-.5 30.9-.7 6-.1 11.9-.3 17.9-.4 10.3-.2 20.6-.5 30.9-.7 7-.2 14.1-.3 21.1-.4.2 0 .4 0 .6-.1-.2-11.4-.4-22.9-.7-34.6zm-62.9-28.6c-.1 1 .5 27 .6 27.5 20.7-.5 41.5-.9 62.3-1.4v-.7l-.3-18.7c0-2.4-.1-4.8-.1-7.3 0-.3 0-.5-.1-.8-20.9.5-41.6 1-62.4 1.4zM35 1334.7c20.9-.5 41.7-.9 62.4-1.4.1-.9-.5-27-.6-27.5-20.7.5-41.5.9-62.3 1.4.1 9.2.3 18.3.5 27.5zm100.2-49.6h-.4c-3.8.1-7.7.2-11.5.2-.4 0-.6.2-.8.5l-9 14.1c-.1.2-.2.3-.3.6h.6c3.7-.1 7.4-.2 11.1-.2.5 0 .8-.2 1.1-.6 2.9-4.6 5.9-9.2 8.8-13.8.1-.3.2-.5.4-.8zm-52.5 1.1h-.8c-3.7.1-7.3.2-11 .2-.5 0-.8.2-1 .6-3 4.7-5.9 9.3-8.9 14-.1.2-.2.4-.4.7h.8c3.7-.1 7.4-.2 11.1-.2.4 0 .6-.2.8-.5l9-14.1c.2-.2.3-.4.4-.7zm4.1 14.9h.7c3.7-.1 7.4-.2 11.1-.2.5 0 .8-.2 1.1-.6 2.9-4.7 5.9-9.3 8.9-14 .1-.2.2-.4.4-.7h-.7c-3.7.1-7.4.2-11.1.2-.5 0-.8.2-1 .6-2.9 4.7-5.9 9.3-8.9 14-.2.2-.3.4-.5.7zm52.5-1.1h.8c3.7-.1 7.4-.2 11.1-.2.4 0 .6-.2.8-.5 3-4.7 6-9.4 8.9-14.1.1-.2.2-.4.4-.7h-.9c-3.6.1-7.3.2-10.9.2-.5 0-.8.2-1 .6-3 4.7-5.9 9.3-8.9 14 0 .2-.1.4-.3.7zm-1-39.3c.2.3.3.5.4.7 3.1 4.5 6.3 9 9.4 13.5.3.4.6.6 1.1.6l11.2-.3h.5c-.1-.2-.2-.4-.4-.6-3.2-4.5-6.3-9.1-9.5-13.6-.3-.4-.6-.5-1-.5-3.7.1-7.4.2-11.1.2 0-.1-.2-.1-.6 0zm-52.4 1.1c.2.3.3.5.4.6 3.2 4.5 6.3 9 9.5 13.6.3.4.5.6 1 .5.7-.1 1.4 0 2.1-.1 3-.1 6-.1 8.9-.2.2 0 .5.1.7-.2-.1-.2-.2-.3-.3-.5-3.2-4.6-6.4-9.1-9.6-13.7-.3-.4-.6-.5-1-.5-3.8.1-7.6.2-11.3.3-.1.2-.2.2-.4.2zm-26.3.6c.2.3.3.5.4.6 3.2 4.5 6.3 9.1 9.5 13.6.3.4.6.5 1 .5l11.3-.3c.1 0 .3 0 .5-.1-.2-.3-.3-.4-.4-.6-3.2-4.5-6.3-9-9.5-13.6-.3-.4-.6-.6-1.1-.6l-11.2.3c-.1.1-.2.1-.5.2zm75.3 13.3c-.2-.3-.3-.5-.4-.7-.8-1.2-1.7-2.4-2.5-3.6-2.3-3.3-4.6-6.6-7-10-.2-.3-.4-.5-.8-.5-3.8.1-7.5.2-11.3.2-.2 0-.4 0-.7.1.1.2.2.4.4.6 3.2 4.6 6.4 9.1 9.5 13.7.3.4.5.5 1 .5 3.3-.1 6.5-.1 9.8-.2.5 0 1.2-.1 2-.1zm-78.8 1.7c-.2-.3-.3-.4-.4-.6-.7-1-1.4-2-2.1-3.1-2.5-3.5-4.9-7.1-7.4-10.6-.2-.3-.4-.5-.8-.5-3.8.1-7.6.2-11.5.3-.1 0-.3 0-.5.1l.3.6c3.2 4.6 6.4 9.1 9.6 13.7.2.4.5.5.9.5 3.8-.1 7.6-.2 11.3-.3.3-.1.4-.1.6-.1zm.4 9.4H56c-3.8.1-7.6.2-11.5.2-.4 0-.6.2-.8.5-3 4.8-6 9.5-9 14.2-.1.1-.1.3-.3.5h.9c3.6-.1 7.3-.2 10.9-.2.5 0 .7-.2 1-.5 3-4.7 5.9-9.4 8.9-14 .1-.2.2-.4.4-.7z"/><path class="st1" d="M43.8 1340.3h1.6v.9c.1 4.8.1 9.7.2 14.5 0 1.6 0 3.2.1 4.8 0 .4-.1.7-.5.8-.4.1-.7.3-1.1.5-.1-.5-.4-20.7-.3-21.5zm3.8 20c-.1-6.8-.2-13.4-.3-20.1.2 0 .4-.1.6-.1H49v.6c.1 6 .2 12 .3 17.9v.5c0 .3-.1.4-.3.5-.5.2-.9.4-1.4.7zm5.2-2.4c-.6.3-1.1.5-1.7.8l-.3-18.5h1.7l.3 17.7zm1.6-17.8c.2 0 .4-.1.6-.1h1.1c0 .2 0 .4.1.6.1 5 .1 10 .2 15 0 .4-.1.7-.5.9-.4.1-.7.3-1.1.5 0-.2-.1-.4-.1-.5v-2.1c-.1-4.5-.1-9-.2-13.5-.1-.3-.1-.5-.1-.8zm3.5 0c.2 0 .4 0 .6-.1h1.1c.1 4.9.1 9.7.2 14.6-.5.2-1.1.5-1.7.8-.1-5.2-.2-10.2-.2-15.3zm5.4 12.9c-.6.3-1.1.5-1.7.8-.1-4.7-.1-9.2-.2-13.7.6-.2.9-.2 1.7-.1.1 4.3.1 8.7.2 13zm1.6-13.1h1.7c.1 3.8.2 7.7.2 11.5-.5.3-1.1.5-1.7.8-.1-4.1-.1-8.2-.2-12.3zm3.7 10.7c0-3.6-.1-7.1-.1-10.7.5-.1 1.1-.1 1.6-.1.2.6.4 8.4.2 10-.5.2-1.1.5-1.7.8zm6.9-10.9h2.3c0 2.2.1 4.3.1 6.5-.8.4-1.5.7-2.3 1.1 0-2.5-.1-5-.1-7.6zm-3.4 9.3c0-3.1-.1-6.1-.1-9.1h1.7c0 .1.1.3.1.4 0 2.5.1 5 .1 7.5 0 .4-.1.6-.4.7-.5 0-.9.2-1.4.5zm-31-8.7h.9v.7l.3 20.1v1.3c0 .2 0 .4-.4.4-.3-7.5-.6-14.9-.8-22.5zm40.3 4.4c-.5.2-1 .5-1.7.8v-5.8h1.5c.2.5.3 3.5.2 5zm1.8-.9v-4.2h1.6v3.4c-.4.3-.9.5-1.6.8zm5.2-4.3v1.9c-.5.2-1 .5-1.5.7-.2-.5-.2-1.8-.1-2.6h1.6zm3.6.2c-.5.4-1.1.6-1.7.9v-1c.5 0 1.1 0 1.7.1-.1-.2 0-.1 0 0zm18.5-9.9c-.2 0-.2.1-.3.1h-1.3c-.2-.5-.5-17.7-.3-18.9h1.6c.1 6.2.2 12.5.3 18.8zm3.5-.3c-.6.4-.8.4-1.7.3-.1-6.2-.2-12.5-.3-18.8h1.7c.2 6.1.2 12.3.3 18.5zm-9-18.5h1.6c.2.5.5 17.3.3 18.8h-1.7c0-6.2-.1-12.4-.2-18.8zm10.7-.2h1.5c.1.4.4 16.1.3 17.1-.5.2-1 .5-1.5.7-.2-.5-.5-17.1-.3-17.8zm5.1 0v.5c.1 4.8.1 9.6.2 14.5 0 .4-.1.7-.5.8-.4.1-.8.3-1.2.6-.1-5.5-.2-10.9-.2-16.3.6-.1 1.1-.1 1.7-.1zm-17.3 19.1H102v-18.8h1.3c0 6.2 0 12.5.2 18.8zm21-5.2c-.5.2-.9.4-1.3.6-.1 0-.2.1-.4.1-.1-4.9-.1-9.8-.2-14.8h1.7c.1 4.8.2 9.4.2 14.1zm3.5-1.6c-.4.2-.7.3-1.1.5-.2.1-.4.1-.6.3-.1-4.4-.1-8.8-.2-13.2h1.7c.1 4.1.2 8.2.2 12.4zm1.7-12.5h1.9c.1 3.6.1 7.2.2 10.8-.6.3-1.2.6-1.9.9-.1-4-.2-7.8-.2-11.7zm5.6 9.1c-.6.3-1.1.5-1.7.8-.1-3.4-.1-6.7-.1-10h1.7c0 3.1 0 6.1.1 9.2zm1.7-.8v-8.5h1.6v.5c0 2.2 0 4.4.1 6.6 0 .4-.1.7-.5.8-.3.2-.7.4-1.2.6zm5.3-2.4c-.6.3-1.1.5-1.7.8 0-2.4-.1-4.6-.1-6.9.3 0 .6-.1.8-.1h.9c0 2.1 0 4.1.1 6.2zm3.4-1.6c-.5.2-1 .5-1.7.8v-5.4h1.5c.3.5.3 2.7.2 4.6zm1.9-4.7h1.6v3c-.5.2-1 .5-1.7.8.1-1.3.1-2.5.1-3.8zm5.1 0v1.5c-.5.2-1 .5-1.6.7-.1-.8-.1-1.5-.1-2.2h1.7zm1.9.6v-.7c.4 0 .8 0 1.3-.1v.2c-.4.2-.8.4-1.3.6zm-76.9 19.5h-2.4l-.3-18.7h2.4c.1 6.2.2 12.4.3 18.7zm10.5-.1h-1.6l-.3-18.8h1.6c.2.5.5 17.6.3 18.8zm-7 .1c-.3 0-.5 0-.7.1h-.8l-.1-.1v-.8c-.1-6-.2-11.9-.2-17.9 0 0 0-.1.1-.2H81c0 .2.1.3.1.5v1.8c.1 5.3.1 10.5.2 15.8-.1.3-.1.5-.1.8zm-9.6-18.7h1.6c.1 6.2.2 12.4.3 18.7-.5.2-1.1.1-1.6.1-.1-.5-.4-17.5-.3-18.8zm20.2 18.5h-1.6c-.2-.5-.5-16.8-.3-18.7.5-.2 1-.2 1.7 0 0 6.2.1 12.4.2 18.7zm-25.3.5h-1.7l-.3-18.7c.3 0 .6 0 .8-.1h.9c.1 6.2.2 12.4.3 18.8zm18.3-.3h-1.7l-.3-18.8h1.7c.1 6.2.2 12.4.3 18.8zM68 1311.7h1.7c.1 6.2.2 12.4.3 18.7h-1.7c-.1-6.2-.2-12.4-.3-18.7zm-22.7 19.2h-1.6c-.1-.4-.4-17.9-.3-18.7h1.7c.1 6.2.1 12.4.2 18.7zm15.7-19h1.7l.3 18.7h-1.7l-.3-18.7zm-3.5 0h1.6c.2.6.5 16.7.3 18.7-.5 0-1.1.1-1.7 0-.1-6.2-.2-12.4-.2-18.7zm-7.1.2c.2 0 .3-.1.4-.1h1.3c.2 3.1.1 6.2.2 9.3.1 3.1.1 6.2.1 9.4h-1.7c-.1-6.2-.2-12.3-.3-18.6zm3.6-.1h1.6c.1 6.2.2 12.4.3 18.7h-1.6c-.1-.6-.4-17.7-.3-18.7zm-7.1.2h1.7l.3 18.6c-.6.2-1.1.1-1.7.1-.2-6.3-.2-12.5-.3-18.7zm-5.1 18.7h-1.1c-.2-6.2-.4-12.4-.7-18.6h1.5c.2 6.1.2 12.3.3 18.6zm51.5-19.7h1.2c0 6.3.1 12.5.1 18.8-.2 0-.4 0-.5.1h-.5c-.1-6.3-.1-12.5-.3-18.9z"/></g><g id="Calque_9"><path class="st1" d="M173.9 1571.6c-1.5.1-2.9.2-4.3.3-4.6.3-9.2.5-13.9.8-3.6.2-7.1.4-10.7.6-4.2.2-8.5.5-12.7.7-3.6.2-7.1.4-10.7.6-4.3.2-8.5.5-12.8.7-2.7.2-5.4.3-8.1.4-3.5.2-7.1.4-10.6.6-2.5.1-5.1.3-7.6.4-3.7.2-7.5.4-11.2.6-2.5.1-5.1.3-7.6.4-3.7.2-7.5.4-11.2.6-2.6.1-5.2.3-7.9.4-3.6.2-7.2.4-10.9.6-.7 0-1.3.1-2.1.1 0-.3-.1-.5-.1-.8-.2-4.5-.5-9-.7-13.5-.3-4.8-.5-9.7-.8-14.5s-.5-9.6-.8-14.5-.5-9.7-.8-14.6c-.2-4-.4-8-.7-12-.3-4.9-.5-9.7-.8-14.6-.2-4-.4-8-.7-12.1-.1-1.8-.4-3.6-.5-5.4l-.9-7.8-.9-7.8c-.1-.9-.2-1.9-.3-2.8v-.8c46.3-5.2 92.6-10.4 139-15.6 1.7 8.3 3.5 16.6 5.2 25-40.7 4.5-81.3 8.9-122 13.3v.1h.9c4.7-.3 9.3-.5 14-.8s9.4-.5 14.1-.8 9.4-.5 14.1-.8c3.9-.2 7.8-.4 11.7-.7 4.7-.3 9.4-.5 14.1-.8s9.4-.5 14.1-.8c4.7-.3 9.4-.5 14.1-.8 3.9-.2 7.9-.4 11.8-.7 4.2-.2 8.4-.5 12.7-.7h1.2c.1.7.1 1.5.2 2.2l.6 11.1c.3 5.2.6 10.3.9 15.5.2 3.7.4 7.3.6 11 .3 5.2.6 10.3.9 15.5.2 2.8.3 5.6.4 8.4.2 4.4.5 8.8.7 13.3.1 2.6.3 5.3.4 7.9l.6 11.4v1.2zm-9.7-41.7h-.9c-3.6.2-7.2.4-10.9.6-2.6.2-5.3.3-7.9.4-3.6.2-7.1.4-10.7.6-2.7.2-5.4.3-8.1.4-3.7.2-7.5.4-11.2.6-2.5.1-5.1.3-7.6.4l-11.1.6c-2.6.1-5.2.3-7.7.4-3.7.2-7.3.4-11 .6-2.6.1-5.2.3-7.8.4l-10.5.6c-2.7.2-5.5.3-8.2.5-4.4.2-8.7.5-13.1.8-.2 0-.4 0-.7.1.6 11.6 1.3 23.1 1.9 34.7h.8c2.6-.1 5.3-.3 7.9-.4 2.4-.1 4.7-.3 7.1-.4l11.1-.6c2.6-.1 5.2-.3 7.7-.4 3.6-.2 7.3-.4 10.9-.6 2.6-.1 5.2-.3 7.9-.4 3.5-.2 7.1-.4 10.6-.6 2.7-.2 5.4-.3 8.1-.4 3.7-.2 7.5-.4 11.2-.6 2.5-.1 5.1-.3 7.6-.4 3.7-.2 7.5-.4 11.2-.6 2.5-.1 5.1-.3 7.6-.4l11.1-.6c2-.1 4-.2 6-.4.2 0 .3-.1.5-.1-.6-11.7-1.2-23.2-1.8-34.8zm-1.7-29.9h-.8c-1.2.1-2.5.2-3.7.2-4.7.3-9.5.5-14.2.8-3.9.2-7.8.4-11.7.7l-16.5.9c-4.4.2-8.7.5-13.1.7-.8 0-1.6.1-2.4.2.5 9.2 1 18.3 1.6 27.4h.5c1.6-.1 3.3-.2 4.9-.3 3.6-.2 7.2-.4 10.9-.6 2.6-.2 5.3-.3 7.9-.4 3.6-.2 7.1-.4 10.7-.6 2.7-.2 5.4-.3 8.1-.4l11.1-.6c2.5-.1 5.1-.3 7.6-.4.2 0 .4-.1.7-.1-.6-9.3-1.1-18.4-1.6-27.5zm-127.2 7.2c.5 9.2 1 18.3 1.5 27.4 1.1-.1 2.1-.1 3.1-.2 3.9-.2 7.8-.4 11.7-.7l16.5-.9c4.7-.3 9.3-.5 14-.8 5.1-.3 10.3-.6 15.4-.9.6 0 1.2-.1 1.8-.1v-1.1c-.2-4.2-.5-8.4-.7-12.7-.2-4.3-.5-8.7-.7-13 0-.2-.1-.5-.1-.7-1.6.1-3.1.2-4.7.2-3.6.2-7.3.4-10.9.6-2.6.1-5.2.3-7.8.4l-11.1.6c-2.6.1-5.1.3-7.7.4-3.7.2-7.3.4-11 .6-2.6.1-5.2.3-7.7.4-.6.4-1.1.4-1.6.5zm48.6-50c.2.3.4.5.5.7 1.1 1.3 2.1 2.6 3.2 3.8 2.5 3 5 5.9 7.4 8.9.3.3.5.4.9.4.4-.1.8-.1 1.2-.1 3.2-.3 6.4-.7 9.6-1.1.3 0 .6-.1 1-.2-.2-.3-.3-.4-.4-.6-3.6-4.3-7.1-8.5-10.7-12.8-.3-.3-.5-.5-1-.4-3.5.4-7.1.8-10.6 1.2-.2.1-.6.1-1.1.2zm77.4 22.8h-.3c-3.1.2-6.1.3-9.2.5-.8 0-1.6.1-2.3.1-.4 0-.7.1-.9.5-.2.5-.5.9-.8 1.3-2.6 4.3-5.1 8.7-7.7 13.1-.1.2-.3.4-.2.7h.8c3.6-.2 7.3-.4 10.9-.6.5 0 .8-.2 1-.6 2.8-4.8 5.6-9.5 8.4-14.3.1-.2.2-.4.3-.7zm-47.7 17.7h1.2c3.5-.2 7-.4 10.4-.6.5 0 .8-.2 1.1-.6 2.8-4.8 5.6-9.5 8.4-14.3l.3-.6h-.7l-6 .3-5.1.3c-.4 0-.7.2-.9.6-2.8 4.8-5.6 9.5-8.4 14.3 0 .1-.1.3-.3.6zm-3.6-43.3c.2.2.3.4.4.5 3.6 4.3 7.2 8.6 10.7 12.8.3.3.5.4.9.4 3.5-.4 7-.8 10.5-1.1.4 0 .9-.1 1.4-.2-.1-.2-.2-.3-.2-.4-.6-.8-1.3-1.5-1.9-2.3-3-3.6-6-7.2-9-10.7-.3-.3-.5-.5-1-.4s-1.1.1-1.7.2c-2.7.3-5.3.6-8 .9-.6.1-1.3.2-2.1.3zm-22.6 44.8h.9c3.6-.2 7.3-.4 10.9-.6.5 0 .8-.2 1-.6 2.8-4.8 5.6-9.5 8.4-14.3.1-.2.2-.4.3-.7h-.6c-.7 0-1.4.1-2.1.1-3 .2-6 .4-9 .5-.5 0-.8.2-1 .7-2.8 4.8-5.6 9.5-8.4 14.3-.1.1-.2.3-.4.6zm-4.6-14.7h-1c-3.6.2-7.3.4-10.9.6-.4 0-.6.3-.8.6-2.8 4.8-5.6 9.5-8.4 14.3l-.3.6h.7l5.7-.3 5.4-.3c.5 0 .7-.2 1-.6 2.8-4.8 5.6-9.5 8.4-14.3-.1-.1 0-.3.2-.6zM35 1502.2h.5l6.3-.3c1.6-.1 3.2-.2 4.9-.3.5 0 .8-.2 1.1-.7.7-1.3 1.5-2.5 2.2-3.7 2.1-3.5 4.1-7 6.2-10.5.1-.2.3-.4.2-.6h-.9c-3.6.2-7.1.4-10.7.6-.5 0-.8.2-1.1.6-2.8 4.8-5.6 9.5-8.4 14.3 0 .1-.1.3-.3.6zm125-38.3c-.2-.3-.3-.4-.5-.6-2.4-2.8-4.7-5.6-7.1-8.4-1.2-1.4-2.4-2.9-3.6-4.4-.3-.3-.5-.5-.9-.4h-.3c-3.2.3-6.4.7-9.5 1-.6.1-1.3.2-2 .2.2.3.3.4.5.6l10.5 12.6c.4.5.8.6 1.4.6 3.2-.4 6.3-.7 9.5-1.1.6.1 1.2 0 2-.1zm-102.2-3.8c.2.3.4.5.5.6.7.8 1.3 1.6 2 2.4 2.9 3.4 5.8 6.9 8.6 10.3.3.3.5.5 1 .4h.3c3.6-.4 7.3-.8 10.9-1.2.2 0 .3-.1.5-.1-.2-.2-.3-.3-.4-.5-3.6-4.3-7.2-8.6-10.7-12.8-.3-.4-.6-.5-1.1-.4-3.2.4-6.4.7-9.5 1.1-.6 0-1.3.1-2.1.2zm-26 2.8c.1.2.2.3.3.5.5.7 1.1 1.3 1.6 1.9 3.1 3.6 6.1 7.3 9.2 10.9.3.4.6.5 1.1.4 3.7-.4 7.5-.8 11.3-1.2.1 0 .3-.1.5-.1-.1-.2-.2-.2-.2-.3-3.7-4.4-7.3-8.8-11-13.1-.2-.3-.4-.3-.7-.3-2.3.3-4.6.5-6.9.8-1.9.1-3.5.3-5.2.5z"/><path class="st1" d="M48.5 1560.6c-.6.3-1.1.5-1.7.8-.4-7.2-.7-14.4-1.1-21.5.5-.2.9-.3 1.7-.1.4 6.9.7 13.8 1.1 20.8zm.8-21H51c.3 6.4.6 12.8 1 19.2-.5.3-1.1.5-1.7.8-.4-6.6-.7-13.2-1-20zm6.1 17.5c-.5.3-1 .5-1.4.7h-.3c-.3-6.1-.6-12.2-.9-18.4.6 0 1.1-.1 1.7-.1.3 6 .6 11.9.9 17.8zm3.4-1.7c-.5.2-.9.5-1.3.7-.1 0-.2.1-.4.1-.3-5.6-.6-11.2-.8-16.8.6-.2 1.1-.1 1.7-.1.3 5.3.5 10.7.8 16.1zm1-16.3h1.7c.2 4.9.5 9.7.7 14.6-.5.2-.9.5-1.3.7-.1 0-.2 0-.3.1-.3-5.2-.5-10.3-.8-15.4zm5.9 12.8c-.6.3-1.1.5-1.7.8-.2-4.7-.5-9.2-.7-13.8.6 0 1.1-.1 1.7-.1.3 4.4.5 8.7.7 13.1zm1.2-13.2h1.7l.6 11.4c-.5.3-1 .5-1.7.8-.2-4-.4-8.1-.6-12.2zm3.5-.1c.6 0 1.1-.1 1.7-.1.2 3.3.3 6.6.5 10-.5.3-1.1.5-1.7.8-.2-3.6-.3-7.2-.5-10.7zm9.4-.6l.3 6.6c-.7.4-1.5.7-2.2 1.1-.2-.5-.5-6.7-.4-7.6.7 0 1.5 0 2.3-.1zm-5.9.4c.2 0 .3-.1.4-.1h1.3c0 .2.1.5.1.7.1 2.4.2 4.7.3 7.1 0 .4-.1.7-.5.8-.4.1-.7.3-1.2.6-.1-3.1-.2-6.1-.4-9.1zM43 1540c.3 0 .6 0 .9-.1 0 .7.1 1.4.1 2 .2 4.1.4 8.3.6 12.4.1 2.5.2 4.9.4 7.4v.5c0 .1-.2.2-.2.3h-.1c-.6-7.5-1.1-15-1.7-22.5zm38.6-2.1c.6 0 1.1-.1 1.7-.1.1 1.7.2 3.3.3 5-.5.3-1 .5-1.7.9-.1-1.9-.2-3.8-.3-5.8zm3.7 4.1c-.1-1.5-.1-2.8-.2-4.2.6 0 1.1-.1 1.7-.1.2 1.2.1 2.3.2 3.5-.5.2-1.1.5-1.7.8zm3.3-4.4c.6 0 1.1-.1 1.7-.1v2l-1.6.8c0-1 0-1.8-.1-2.7zm3.6-.2h1.7v.2c-.2.2-1 .6-1.6.8-.1-.3-.1-.6-.1-1zm13.7-29c.6 0 1.1 0 1.7-.1l.9 18.9c-.6 0-1.1.1-1.7.1-.3-6.2-.6-12.5-.9-18.9zm6.2 18.7c-.5 0-.8.1-1.2.1h-.6l-.9-18.9c.5 0 .8-.1 1.2-.1h.5c.4 6.3.7 12.5 1 18.9zm3.5-.5c-.6.3-.7.4-1.7.3-.3-6.2-.6-12.5-.9-18.8.3 0 .6-.1.8-.1h.9l.9 18.6zm.9-18.7c.2 0 .3-.1.4-.1h1.2c0 .2.1.5.1.7.1 2.9.3 5.9.4 8.8.1 2.4.2 4.7.4 7.1 0 .4-.1.6-.4.8-.4.2-.7.4-1.2.6-.3-6-.6-11.9-.9-17.9zm6 15.3c-.6.3-1.1.5-1.6.8-.2-.6-.9-15.5-.8-16.3.5 0 1-.1 1.6-.1.3 5.2.5 10.4.8 15.6zm-17.5 4.3h-1.5c-.2-6.3-.5-12.5-.7-18.8.5 0 .9-.1 1.3-.1.3 6.3.6 12.5.9 18.9zm20.9-6c-.6.3-1.1.5-1.7.8-.2-5-.5-9.8-.7-14.8.6 0 1.1 0 1.7-.1.3 4.7.5 9.4.7 14.1zm1.1-14.2c.6 0 1.1-.1 1.6-.1.2.5.8 10.9.7 12.5-.5.2-1 .5-1.6.8-.2-4.4-.4-8.8-.7-13.2zm3.5-.2c.4 0 .6-.1.9-.1h1.1c.2 3.6.4 7.2.5 10.8-.6.3-1.2.6-1.9.9-.2-3.8-.3-7.6-.6-11.6zm3.8-.2c.6 0 1.1-.1 1.7-.1.2 3.1.3 6.2.5 9.3-.5.3-1 .5-1.7.9-.2-3.4-.3-6.7-.5-10.1zm3.5-.2c.6 0 1.1-.1 1.7-.1.2 2.6.3 5.1.4 7.7-.5.3-1.1.5-1.7.8-.1-2.7-.2-5.5-.4-8.4zm3.5-.2h1.7c.1 2 .2 4 .3 6.1-.5.3-1.1.5-1.7.8 0-2.3-.1-4.5-.3-6.9zm3.6-.1c.6 0 1.1-.1 1.7-.1 0 .2.1.4.1.5.1 1.2.1 2.4.2 3.6 0 .3-.1.5-.4.7-.4.2-.8.4-1.3.6-.2-1.8-.3-3.5-.3-5.3zm3.5-.2h1.7c0 .9.1 1.8.1 2.8 0 .1-.2.3-.3.4-.4.2-.8.4-1.3.7-.2-1.4-.1-2.7-.2-3.9zm3.6 2.1v-2.3c.5 0 1-.1 1.6-.1 0 .5.1 1 .1 1.5-.5.3-1 .5-1.7.9zm4.9-2.5c-.4.2-.7.4-1 .5-.1.1-.2.1-.4.2 0-.3 0-.4-.1-.7h1.5zm-77.6 22.9c-.8 0-1.6.1-2.4.1-.3-6.3-.6-12.5-.9-18.7.8-.2 1.5-.1 2.3-.2.4 6.3.7 12.5 1 18.8zm11.6-19.4c.5 0 1-.1 1.6-.1.3 6.3.6 12.5.9 18.8-.5.2-1.1.1-1.6.2-.2-.6-1.1-18-.9-18.9zm-3.7.2c.6 0 1.1-.1 1.6-.1.2.5 1.1 17.7 1 18.8-.5 0-1 0-1.6.1-.3-6.3-.6-12.5-1-18.8zm-1.8.1c.3 6.3.6 12.5.9 18.8-.6 0-1.1.1-1.7.1-.3-6.3-.6-12.5-.9-18.8.2 0 .4-.1.6-.1h1.1zM75.2 1529c-.6 0-1.1.1-1.7.1-.3-6.3-.6-12.5-.9-18.8.6 0 1.1-.1 1.7-.1.2 6.2.6 12.5.9 18.8zm7.5-.5c-.1 0-.3.1-.4.1h-1.1c-.2-.4-1.1-17.2-1-18.7.5 0 1-.1 1.5-.1.3.5 1.2 18 1 18.7zm-12-18.1c.3 6.3.6 12.5.9 18.7-.6 0-1.1.1-1.7.1-.3-6.3-.6-12.5-.9-18.8.4 0 .7 0 .9-.1.3.1.5.1.8.1zm-5.2.3c.4 0 .8-.1 1.2-.1h.5c.3 6.2.6 12.5.9 18.7-.6 0-1.1.1-1.7.1-.3-6.2-.6-12.4-.9-18.7zm-.9 18.8c-.6 0-1.1.1-1.7.1-.3-6.3-.6-12.5-.9-18.8.6 0 1.1-.1 1.7-.1.3 6.3.6 12.5.9 18.8zm-13.2-18.1c.6 0 1.1-.1 1.7-.1.3 6.3.6 12.4.9 18.7-.6 0-1.1.1-1.7.1-.3-6.2-.6-12.4-.9-18.7zm9.7 18.3h-1.7l-.9-18.6c.3 0 .4-.1.6-.1h1.1c.2 2.1.2 4.1.3 6.2s.2 4.1.3 6.2c.1 2 .2 4.1.3 6.3zm-14.1.7c-.6 0-1.1.1-1.7.1-.3-6.3-.6-12.5-.9-18.7h1.7c.3 6.2.6 12.3.9 18.6zm8-19.2c.3 0 .7 0 1-.1h.6c.3 6.2.6 12.4.9 18.7-.6 0-1.1.1-1.6.1-.1-.5-1-17.9-.9-18.7zm-4.6 19h-1.6l-.9-18.6c.6 0 1.1-.1 1.6-.1.1.5 1 17.8.9 18.7zm-6.9.3c-.3 0-.4.1-.6.1h-.5c-.4-6.2-.9-12.4-1.3-18.6.5 0 .9-.1 1.5-.1l.9 18.6zm50.8-21.4h1.2c.3 6.2.5 12.5.8 18.8-.3 0-.6.1-1 .1-.4-6.3-.7-12.6-1-18.9z"/></g><g id="Calque_10"><path class="st1" d="M168.2 1669.8c.1 1 .2 2 .3 2.9.4 3.9.7 7.7 1.1 11.6l.9 9.6c.3 3.7.7 7.3 1 11l.9 9.6c.3 3.7.7 7.3 1 11l.9 9.6c.3 3.7.7 7.3 1 11l.9 9.6.9 9.6c0 .3 0 .7.1 1-.7.1-1.4.1-2 .2-3.3.3-6.5.6-9.8.9-2.6.2-5.3.5-7.9.7-2.7.2-5.4.5-8 .7s-5.3.5-7.9.7c-2.7.2-5.4.5-8 .7-2.1.2-4.3.4-6.4.6-2.7.2-5.4.5-8.1.8-2.1.2-4.2.4-6.2.6-2.8.3-5.5.5-8.3.8l-6.3.6c-2.7.3-5.4.5-8.2.8-2.1.2-4.3.4-6.4.6-2.7.2-5.4.5-8.1.8l-6.3.6c-2.7.3-5.5.5-8.2.8-2.6.2-5.3.5-7.9.7-2.7.2-5.4.5-8 .7l-6.3.6c-.8.1-1.6.2-2.4.2-.3 0-.6 0-.9.1-.1-.9-.2-1.8-.2-2.6-.3-2.8-.5-5.5-.8-8.3-.2-2.1-.4-4.3-.6-6.4-.3-2.8-.5-5.6-.8-8.4-.2-2.1-.4-4.3-.6-6.4-.3-2.8-.5-5.6-.8-8.4-.2-2.1-.4-4.3-.6-6.4-.3-2.8-.5-5.5-.8-8.3-.2-2.1-.4-4.3-.6-6.4-.3-2.8-.5-5.6-.8-8.4-.2-2.1-.4-4.3-.6-6.4-.3-2.8-.5-5.6-.8-8.4-.2-2.1-.4-4.3-.6-6.4-.2-1.9-.3-3.8-.5-5.7-.2-1.5-.6-3-.9-4.5l-3.6-18c0-.2 0-.3-.1-.6 45.7-9.2 91.3-18.4 137.1-27.7 2.5 8.1 4.9 16.2 7.4 24.4l-126.9 25.2v.1c42.8-3.8 85.7-7.7 128.7-11.7zM41.9 1771.5c.4 0 .7 0 1-.1 1.3-.1 2.6-.2 3.9-.4l6.3-.6c2.7-.3 5.4-.5 8.2-.8 2.6-.2 5.2-.5 7.8-.7 2.7-.2 5.4-.5 8-.7s5.3-.5 7.9-.7c2.7-.2 5.3-.5 8-.7s5.3-.5 8-.7 5.3-.5 8-.7 5.3-.5 8-.7c3.1-.3 6.3-.6 9.4-.9 2.7-.2 5.3-.5 8-.7s5.3-.5 8-.7 5.3-.5 8-.7c3.1-.3 6.3-.6 9.4-.9 2.7-.2 5.3-.5 8-.7.4 0 .8-.1 1.2-.2.1-.9-3-34.1-3.1-34.6h-.1c-2.9.3-5.8.5-8.7.8-2.7.2-5.4.5-8 .7-2.1.2-4.3.4-6.4.6-2.7.2-5.4.5-8.1.8-2.1.2-4.3.4-6.4.6-2.7.3-5.4.5-8.2.8-2.1.2-4.3.4-6.4.6-2.7.2-5.4.5-8 .7-2.1.2-4.3.4-6.4.6-2.7.2-5.4.5-8.1.8-2.1.2-4.3.4-6.4.6-3.1.3-6.3.6-9.4.9-2.6.2-5.3.5-7.9.7-3.1.3-6.3.6-9.4.9-2.7.2-5.3.5-8 .7l-9.9.9c-.3 0-.6.1-.9.1.6 11.4 1.6 22.9 2.7 34.4zm123.5-48.7c0-.8-2.2-26.9-2.5-27.4-.3 0-.7 0-1 .1-.7.1-1.4.1-2.1.2-2.7.2-5.3.5-8 .7-3.1.3-6.3.6-9.4.9-2.7.2-5.3.5-8 .7-3.1.3-6.2.6-9.4.9-3.1.3-6.3.6-9.4.9l-12.9 1.2c-.6.1-1.2.1-1.9.2.8 9.1 1.7 18.2 2.5 27.4 20.8-2 41.4-3.9 62.1-5.8zm-126.8 11.6c20.8-1.9 41.5-3.8 62.3-5.7-.8-9.2-1.7-18.2-2.5-27.4-20.8 1.9-41.5 3.8-62.2 5.7.7 9.2 1.5 18.3 2.4 27.4zm96.4-56.5c-.4 0-.8 0-1.1.1l-9.9.9c-.5 0-1 0-1.4.2-.3.2-.4.7-.6 1.1-.1.1-.1.2-.2.3-2.5 4.6-5 9.1-7.4 13.7-.1.2-.3.4-.2.7.8-.1 1.5-.1 2.3-.2 3.1-.3 6.3-.6 9.4-.8.4 0 .7-.2.9-.6 2.6-4.9 5.3-9.7 7.9-14.6.1-.3.2-.5.3-.8zm-26.1 2.4c-.7.1-1.2.1-1.7.2l-10.2.9c-.4 0-.5.2-.7.5-2.7 5-5.4 10-8.1 14.9-.1.1-.1.3-.2.5h.3c3.8-.3 7.6-.7 11.4-1 .5 0 .7-.2 1-.7 2.6-4.9 5.2-9.7 7.9-14.5.1-.3.1-.5.3-.8zm-47.1 19.4h.4c1.8-.2 3.6-.3 5.4-.5 2-.2 4-.4 6-.5.4 0 .7-.2.8-.5.2-.4.4-.7.6-1.1 2.4-4.5 4.9-9 7.3-13.5.1-.2.3-.4.2-.7-.5.1-1 .1-1.5.1-3.4.3-6.7.6-10.1.9-.5 0-.8.2-1 .7-2.6 4.8-5.2 9.7-7.8 14.5 0 0-.1.3-.3.6zm78.4-7.3c.1 0 .2.1.2 0 3.9-.4 7.7-.7 11.6-1 .4 0 .7-.2.9-.6 2.6-4.9 5.3-9.8 7.9-14.7l.3-.6h-.8c-.8.1-1.7.2-2.5.2-2.8.3-5.6.5-8.4.8-.5 0-.8.2-1 .7-2.6 4.9-5.3 9.7-7.9 14.6l-.3.6zm-104.6 9.7c.9-.1 1.7-.2 2.5-.2 3.1-.3 6.2-.6 9.4-.8.4 0 .7-.2.9-.6 2.6-4.9 5.3-9.8 8-14.7.1-.2.2-.3.3-.6-4.2.4-8.3.8-12.4 1.1-2.9 5.2-5.7 10.4-8.7 15.8zm20.2-44.2c.2.2.3.4.5.5l11.8 11.8c.3.3.6.4 1.1.3 3.7-.8 7.5-1.5 11.2-2.2.1 0 .2-.1.4-.1-.1-.2-.2-.3-.3-.4l-12-12c-.2-.2-.5-.3-.8-.3-3.6.7-7.1 1.4-10.7 2.1-.5.2-.8.2-1.2.3zm50.7 5.2c-.2-.2-.2-.3-.3-.3l-12-12c-.3-.3-.6-.3-1-.3-3.7.8-7.5 1.5-11.2 2.2-.1 0-.3.1-.4.2.1.2.2.3.3.3l12 12c.3.3.5.4.9.3 3.3-.7 6.6-1.3 9.9-2 .5-.1 1.1-.2 1.8-.4zm51.4-10.2c-.2-.2-.3-.4-.4-.5l-11.9-11.9c-.3-.3-.5-.4-.9-.3-3.7.8-7.4 1.5-11.1 2.2-.2 0-.3.1-.5.2.2.2.3.3.4.5l11.8 11.8c.3.3.7.4 1.1.3 2.4-.5 4.8-1 7.3-1.5 1.3-.2 2.7-.5 4.2-.8zM30.1 1663c.2.2.2.3.3.4 4 4 8 8.1 12.1 12.1.2.3.5.3.8.2 3.3-.7 6.6-1.3 9.9-2 .6-.1 1.2-.2 1.9-.4l-.4-.4-12-12c-.3-.3-.5-.3-.9-.3-2.8.6-5.7 1.1-8.5 1.7-1.1.3-2.1.5-3.2.7zm77.2-15.3c.2.2.2.3.3.4l12.1 12.1c.2.3.5.3.8.2 3.3-.7 6.6-1.3 9.9-2 .6-.1 1.2-.2 1.8-.4l-.6-.6-11.7-11.7-.2-.2c-.1-.2-.3-.2-.5-.2-.2.1-.3.1-.5.1-2.9.6-5.7 1.1-8.6 1.7-1 .2-1.8.4-2.8.6z"/><path class="st1" d="M47.7 1739.3c.6-.1 1.1-.1 1.7-.2.6 7 1.2 13.9 1.8 20.8-.5.3-1 .6-1.6.9-.3-2.5-.4-4.8-.6-7.2-.2-2.4-.4-4.7-.6-7.1-.3-2.3-.5-4.7-.7-7.2zm3.5-.3c.6 0 1.1-.1 1.7-.1 0 .3.1.6.1.9.3 3.5.6 7.1.9 10.6l.6 7.2c0 .4-.1.7-.5.9-.4.2-.7.4-1.1.6-.6-6.8-1.1-13.4-1.7-20.1zm6.7 17.3c-.5.3-1 .6-1.6.9-.5-6.2-1-12.3-1.6-18.5.6-.1 1.1-.1 1.7-.2.5 6 1 11.8 1.5 17.8zm3.4-1.9c-.6.3-1 .6-1.6.9-.3-2.9-.5-5.7-.7-8.5-.3-2.8-.5-5.6-.7-8.4.6-.1 1.1-.1 1.7-.2.4 5.5.9 10.8 1.3 16.2zm2.2-16.4c.4 4.9.8 9.7 1.2 14.6-.5.3-1 .6-1.6.9-.4-5.2-.9-10.2-1.3-15.4.5 0 1-.1 1.7-.1zm2.9 13.6c-.4-4.7-.8-9.2-1.2-13.8.6-.1 1.1-.1 1.7-.2.1.7.1 1.4.2 2l.9 10.5c0 .4 0 .6-.4.8-.3.2-.7.4-1.2.7zm2.4-14.1c.6-.1 1.1-.1 1.7-.2.3 3.9.7 7.7 1 11.5-.5.3-1 .6-1.6.9-.5-4.1-.8-8.1-1.1-12.2zm3.5-.3c.6-.1 1.1-.1 1.7-.2.3 3.3.6 6.6.9 10-.5.3-1 .6-1.6.9-.4-3.6-.7-7.1-1-10.7zm9.9 5.7c-.7.4-1.4.8-2.3 1.2-.2-2.6-.4-5.1-.6-7.6.8-.1 1.5-.1 2.3-.2.2 2.3.4 4.4.6 6.6zm-4 2.2c-.5.3-1 .6-1.6.9-.3-3.1-.5-6.1-.8-9.2.6 0 1.1-.1 1.7-.1.2 2.8.5 5.6.7 8.4zM47.5 1762c-.2-.4-2.5-21.4-2.4-22.4.2 0 .5-.1.8-.1.1.5.1 1 .2 1.5.2 2.3.4 4.6.6 7 .2 2.9.5 5.8.7 8.8.1 1.6.3 3.2.4 4.8 0 .1 0 .3-.3.4zm36-25.8c.5 0 1.1-.1 1.7-.1.1 1.7.3 3.3.4 5-.5.3-1 .6-1.5.8-.2-.4-.6-4.5-.6-5.7zm3.8 3.9c-.1-1.4-.2-2.8-.4-4.2.6-.1 1.1-.1 1.6-.2 0 .2.1.4.1.5.1.8.1 1.6.2 2.5 0 .4-.1.6-.4.7-.3.2-.6.5-1.1.7zm4.9-4.7c.1.7.1 1.3.2 1.9-.5.3-1 .6-1.6.9-.1-.9-.1-1.7-.2-2.6.5-.1 1-.1 1.6-.2zm1.9.9c0-.4-.1-.7-.1-1 .6 0 1.1-.1 1.7-.1-.1.4-.4.6-1.6 1.1zm19.5-12c-.6.1-1.1.1-1.7.1-.5-6.3-1.1-12.5-1.6-18.8.3 0 .6-.1.8-.1h.9c.5 6.2 1 12.4 1.6 18.8zm-3.6.3c-.6 0-1.1.1-1.7.1-.5-6.3-1.1-12.5-1.6-18.8.6-.1 1.1-.1 1.7-.2.2 2.1.4 4.2.5 6.3.2 2.1.4 4.2.5 6.3.3 2.1.5 4.1.6 6.3zm5.4-.5c-.5-6.3-1.1-12.6-1.6-18.9.6-.1 1.1-.1 1.6-.2 0 .2.1.3.1.5.2 1.9.3 3.9.5 5.8.3 3 .5 5.9.8 8.9.1 1 .2 2.1.3 3.1 0 .4-.1.6-.4.6-.5.2-.9.2-1.3.2zm1.9-19.2c.6-.1 1.1-.1 1.7-.2.5 5.7 1 11.4 1.4 17.1-.5.3-1 .6-1.6.9-.5-5.9-1-11.8-1.5-17.8zm-10.8 20c-.5 0-.8.1-1.2.1h-.3c-.5-6.2-.9-12.5-1.4-18.8.5 0 .9-.1 1.4-.1.5 6.2 1 12.5 1.5 18.8zm14.3-20.3c.6 0 1.1-.1 1.7-.1.4 5.2.9 10.4 1.3 15.5-.6.3-1 .6-1.6.9-.5-5.4-.9-10.8-1.4-16.3zm3.5-.3c.6 0 1.1-.1 1.7-.1.4 4.7.8 9.3 1.2 14-.5.3-1 .6-1.7.9-.4-5-.8-9.9-1.2-14.8zm3.5-.3c.6-.1 1.1-.1 1.7-.2.4 4.2.7 8.3 1.1 12.5-.5.3-1 .6-1.7.9-.3-4.4-.7-8.8-1.1-13.2zm6.4 10.3c-.6.3-1.2.7-1.9 1-.3-3.9-.7-7.7-1-11.7.6-.1 1.2-.1 1.9-.2.4 3.7.6 7.3 1 10.9zm3.3-1.8c-.6.3-1.1.6-1.6.9-.3-3.4-.6-6.7-.8-10 .6-.1 1.1-.1 1.7-.2.2 3.1.5 6.2.7 9.3zm3.4-1.9c-.5.3-1 .6-1.6.9-.3-2.9-.5-5.6-.7-8.5.6-.1 1.1-.1 1.7-.2.2 2.7.4 5.2.6 7.8zm2.9-8c.2 2.1.3 4.1.5 6.2-.5.3-1 .6-1.6.9l-.6-6.9c.6-.1 1.1-.2 1.7-.2zm1.8-.2c.6-.1 1.1-.1 1.7-.2.1 1.6.3 3.1.4 4.6-.5.3-1 .6-1.6.9-.2-1.7-.4-3.5-.5-5.3zm5.2-.5c.1 1.1.2 2 .3 3.1-.5.3-1 .6-1.6.9-.1-1.3-.2-2.5-.3-3.8.5 0 1-.1 1.6-.2zm3.7 1.3c-.5.3-1 .6-1.6.9-.1-.8-.1-1.5-.2-2.2.5-.2.9-.2 1.7-.2 0 .5 0 1 .1 1.5zm1.7-1c0-.3 0-.5-.1-.7.5-.1.9-.1 1.3-.1v.1c-.3.2-.7.4-1.2.7zm-79.2 6.3c.7-.1 1.5-.1 2.3-.2.5 6.3 1.1 12.4 1.6 18.7-.7.2-1.5.1-2.2.3-.2-.5-1.8-17.9-1.7-18.8zm14.6-1.3c.6-.1 1.1-.1 1.6-.2.2.5 1.7 17.2 1.7 18.7-.5.2-1.1.2-1.7.2-.5-6.2-1-12.4-1.6-18.7zm-.2 19c-.6 0-1.1.1-1.7.1-.5-6.3-1.1-12.5-1.6-18.8.6 0 1.1-.1 1.7-.1.6 6.3 1.1 12.5 1.6 18.8zm-6.8-18.3c.6-.1 1.1-.1 1.7-.2.5 6.3 1.1 12.5 1.6 18.8-.3 0-.6.1-.8.1-.3 0-.5.1-.9.1-.5-6.3-1.1-12.5-1.6-18.8zm-7.9 19.5c-.6.1-1.1.1-1.6.2-.2-.5-1.7-17.7-1.6-18.8.2 0 .5 0 .8-.1.3 0 .5 0 .9-.1.5 6.3 1 12.5 1.5 18.8zm4.4-19.2c.6-.1 1.1-.1 1.7-.2.6 6.2 1.1 12.5 1.6 18.8-.6.1-1.1.1-1.7.2-.6-6.3-1.1-12.6-1.6-18.8zm-11.2 1c.6 0 1.1-.1 1.7-.1.5 6.3 1.1 12.5 1.6 18.7-.6.1-1.1.1-1.7.1-.5-6.3-1-12.4-1.6-18.7zm-3.7 19.1c-.6.1-1.1.1-1.6.1-.2-.5-1.7-18-1.6-18.7.5 0 1-.1 1.6-.1.5 6.3 1.1 12.5 1.6 18.7zm-10.3-17.9c.6-.1 1.1-.1 1.7-.2.6 6.2 1.1 12.4 1.6 18.7-.3 0-.6.1-.8.1h-.9c-.6-6.1-1.1-12.3-1.6-18.6zm10.5-.9c.6-.1 1.1-.1 1.6-.2.2.5 1.7 17.7 1.7 18.7-.5 0-1 .1-1.6.1-.7-6.2-1.2-12.3-1.7-18.6zm-7 .6c.6 0 1.1-.1 1.7-.1.5 6.3 1.1 12.4 1.6 18.7-.6.1-1.1.1-1.7.2-.6-6.4-1.1-12.5-1.6-18.8zm-10.8 19.7c-.6.1-1.1.1-1.7.2-.6-6.2-1.1-12.4-1.6-18.7.6-.1 1.1-.1 1.7-.2.6 6.3 1.1 12.5 1.6 18.7zm7-.5c-.6 0-1.1.1-1.7.1-.5-6.2-1.1-12.4-1.6-18.7.6-.1 1.1-.1 1.7-.1.6 6.2 1.1 12.4 1.6 18.7zm-3.5.2c-.6.1-1.1.1-1.7.1-.5-6.2-1-12.4-1.6-18.6.3 0 .6-.1.8-.1h.9c.6 6.2 1.1 12.4 1.6 18.6zm-7 .6c-.4 0-.7.1-1.1.1-.7-6.2-1.3-12.4-2-18.6.5 0 .9-.1 1.5-.1.6 6.2 1.1 12.4 1.6 18.6zm50-23.2c.4 0 .8-.1 1.2-.1.3 3.1.5 6.3.7 9.4s.5 6.2.7 9.4c-.3 0-.6.1-1 .1-.5-6.2-1-12.5-1.6-18.8z"/></g><g id="Calque_11"><path class="st1" d="M19.8 1860.6c44.8-13.2 89.5-26.4 134.2-39.5 3.2 7.9 6.3 15.7 9.5 23.7-42.2 12.3-84.2 24.5-126.3 36.8.5.1 19.1-2.2 26.1-3.2 8.7-1.2 17.4-2.2 26.1-3.3l26.1-3.3 26.1-3.3 26.1-3.3c4 32.2 8.1 64.2 12.1 96.4-47.1 6-94.1 12-141.2 18-.1-.2-.1-.5-.1-.7-.3-2.6-.7-5.2-1-7.8-.3-2.6-.7-5.3-1-7.9-.3-2.7-.7-5.3-1-8-.4-3-.8-6-1.1-9.1-.3-2.6-.7-5.3-1-7.9-.3-2.7-.7-5.3-1-8-.3-2.6-.7-5.2-1-7.9-.3-2.7-.7-5.4-1-8.1-.3-2.6-.7-5.2-1-7.8-.3-2.7-.7-5.4-1-8.1-.3-2.6-.7-5.2-1-7.7l-.9-7.5c0-.2-.1-.5-.2-.7-2.1-7-4.1-13.9-6.2-20.9-.1-.4-.2-.6-.3-.9zM45 1971.2c42.2-5.4 84.3-10.7 126.4-16.1-1.4-11.5-2.9-23-4.3-34.4-.1 0-.2-.1-.2-.1-41.9 5.3-83.7 10.7-125.6 16-.2 0-.3.1-.5.1h-.1l-.1.1c1.5 11.4 2.9 22.8 4.4 34.4zm118.4-80.4c-20.7 2.6-41.3 5.3-62 7.9 1.2 9.1 2.3 18.2 3.5 27.3 20.7-2.6 41.3-5.3 61.9-7.9-1.2-9.1-2.3-18.2-3.4-27.3zM37 1906.9c0 .9 3.2 26.7 3.5 27.3 5.1-.7 10.3-1.3 15.4-2 5.2-.7 10.3-1.3 15.5-2s10.4-1.4 15.5-2c5.7-.7 14.9-1.9 15.5-2.1-1.2-9-2.3-18-3.5-27.2-20.7 2.7-41.2 5.4-61.9 8zm97.8-32.6h-.6c-3.7.5-7.5 1-11.2 1.4-.4 0-.5.2-.7.5-2.5 5.1-5 10.2-7.6 15.2-.1.1-.1.3-.1.5h.7c3.7-.5 7.4-1 11-1.4.5-.1.7-.2.9-.6 2.5-5 4.9-9.9 7.4-14.9-.1-.2 0-.4.2-.7zm-46.4 21c.6-.1 1.2-.1 1.7-.2 3.4-.4 6.7-.9 10.1-1.3.4 0 .6-.2.8-.6 2.5-5 5-10.1 7.5-15.1.1-.1.1-.3.2-.5h-.7c-3.7.5-7.3 1-11 1.4-.5.1-.7.2-.9.6-2.5 5-4.9 10-7.4 14.9-.1.3-.2.5-.3.8zm52-6.6h.8c3.7-.5 7.4-1 11-1.4.4 0 .6-.2.8-.6 2.5-5 5-10.1 7.5-15.1.1-.1.1-.3.2-.6l-2.7.3c-3 .4-6 .8-9 1.1-.5.1-.8.2-1 .7-2.4 4.9-4.9 9.9-7.3 14.8 0 .2-.1.5-.3.8zm-78.1 10c.8-.1 1.4-.2 2-.3l9.9-1.2c.3 0 .6-.2.7-.5.2-.4.4-.8.6-1.1l6.9-13.8c.1-.2.3-.4.2-.8-.3 0-.6.1-.9.1l-2.7.3c-2.6.3-5.3.7-7.9 1-.5.1-.8.3-1 .7-2.4 4.9-4.9 9.8-7.3 14.8-.2.2-.3.4-.5.8zm42.2-42l-.5-.5c-4.2-3.6-8.4-7.1-12.7-10.7-.4-.3-.8-.4-1.3-.3-3.5 1.1-7.1 2.1-10.6 3.1-.2.1-.4.1-.7.2.2.2.4.3.5.4 4.3 3.6 8.5 7.2 12.8 10.7.4.3.7.4 1.1.2 3.6-1.1 7.1-2.1 10.7-3.1.2.2.4.1.7 0zm-76.1 6.6l.5.5c4.3 3.6 8.5 7.1 12.7 10.7.3.3.6.3 1.1.2 3.6-1.1 7.1-2.1 10.7-3.1.2-.1.4-.1.7-.2l-.4-.4-12.9-10.8c-.3-.3-.6-.3-1-.2-3.6 1-7.1 2.1-10.7 3.1-.2.1-.4.1-.7.2zm100.7-29.3c.3.3.5.4.7.6 4.2 3.5 8.4 7.1 12.7 10.7.3.3.6.4 1.1.2 3.6-1.1 7.2-2.1 10.7-3.1.2-.1.4-.1.6-.2l-.5-.5c-4.2-3.6-8.5-7.1-12.7-10.7-.4-.3-.6-.4-1.1-.2-2.4.7-4.9 1.4-7.4 2.2-1.3.2-2.6.5-4.1 1zm-25.1 7.3l.5.5c.8.7 1.6 1.3 2.4 2 3.4 2.9 6.9 5.8 10.3 8.7.4.3.7.4 1.1.3 3.6-1.1 7.1-2.1 10.7-3.1.2-.1.4-.1.7-.2l-.4-.4-12.9-10.8c-.3-.3-.6-.3-1-.2-3.5 1-7 2.1-10.5 3.1-.3-.1-.6 0-.9.1zM53.6 1856c.2.2.4.4.6.5 4.2 3.6 8.4 7.1 12.7 10.7.4.3.7.4 1.1.2 3.5-1 7.1-2.1 10.6-3.1.2-.1.4-.1.7-.3-.3-.2-.5-.4-.7-.6-4.2-3.5-8.4-7.1-12.6-10.6-.4-.3-.7-.4-1.1-.2-3.5 1.1-7.1 2.1-10.6 3.1-.2.1-.4.2-.7.3zm3.1 28.3c-.5 0-.8.1-1.1.1-1.7.2-3.4.4-5.1.7-1.9.2-3.8.5-5.7.7-.4 0-.6.2-.7.5-2.5 5-5 10.1-7.5 15.1-.1.1-.1.3-.2.5.5-.1.9-.1 1.3-.1 3.4-.4 6.8-.9 10.3-1.3.5-.1.9-.2 1.1-.8 2.4-4.9 4.9-9.8 7.3-14.8.1-.1.2-.3.3-.6z"/><path class="st1" d="M49.6 1938.8c.6-.1 1.1-.1 1.7-.2.8 6.9 1.7 13.8 2.5 20.8-.5.3-1 .6-1.6 1-.8-7.3-1.7-14.4-2.6-21.6zm3.5-.5c.6-.1 1.1-.1 1.7-.2.8 6.4 1.5 12.8 2.3 19.2-.5.3-1 .6-1.6 1-.8-6.7-1.6-13.3-2.4-20zm3.5-.4c.6-.1 1.1-.1 1.7-.2.7 5.9 1.4 11.7 2.1 17.6-.5.3-1 .6-1.6 1-.7-6.2-1.4-12.2-2.2-18.4zm3.5-.4c.6-.1 1.1-.1 1.7-.2.6 5.4 1.3 10.7 1.9 16.1-.5.3-1 .6-1.6 1-.6-5.7-1.3-11.3-2-16.9zm7 13.9c-.5.3-1 .6-1.6 1l-1.8-15.3c.6-.1 1.1-.1 1.6-.2.3 1.2.3 2.4.5 3.6s.3 2.5.4 3.7.3 2.4.4 3.6c.2 1.2.3 2.4.5 3.6zm0-14.8c.6-.1 1.1-.1 1.7-.2.5 4.3 1 8.7 1.6 13-.5.3-1 .6-1.6 1-.6-4.7-1.1-9.2-1.7-13.8zm6.6 10.8c-.5.3-1 .6-1.6 1-.5-4.1-1-8.1-1.5-12.2.4-.1.7-.1 1-.2h.7c.5 3.8 1 7.6 1.4 11.4zm3.3-1.9c-.5.3-1 .6-1.6 1-.4-3.6-.8-7.1-1.3-10.7.6-.1 1.1-.1 1.7-.2.4 3.3.8 6.5 1.2 9.9zm7.3-4.4c-.7.4-1.4.8-2.1 1.3-.2-.5-1-6.6-.9-7.5.7-.1 1.4-.2 2.2-.3.3 2.2.5 4.3.8 6.5zm-6.7-5.8c.6-.1 1.1-.1 1.7-.2.3 2.8.7 5.5 1 8.4-.5.3-1 .6-1.6 1-.4-3.1-.7-6.1-1.1-9.2zm-30.6 3.8c.4 0 .6-.1.9-.1.1.6.2 1.1.2 1.6l1.2 9.9 1.2 10.2c0 .2.2.6-.3.7-1.1-7.4-2.2-14.8-3.2-22.3zm40.6.1c-.5.3-1 .6-1.6 1-.3-1.9-.5-3.8-.7-5.7.6-.1 1.1-.1 1.7-.2.2 1.6.4 3.2.6 4.9zm2.9-5.5c.1 1.2.3 2.3.4 3.5-.5.3-1 .6-1.6 1-.2-1.4-.3-2.8-.5-4.2.6-.1 1.1-.2 1.7-.3zm1.8-.2c.6-.1 1.1-.1 1.7-.2.1.6.2 1.2.2 1.9-.5.3-1 .6-1.6 1-.1-1-.2-1.8-.3-2.7zm3.5-.4c.6-.1 1.1-.1 1.7-.2v.3c-.4.4-1 .7-1.5.9-.1-.3-.2-.6-.2-1zm19.1-11.7c-.6.1-1.1.1-1.7.2-.8-6.3-1.5-12.5-2.3-18.8.6-.1 1.1-.1 1.6-.2.3.5 2.3 17.2 2.4 18.8zm-7.4-18.1c.6-.1 1.1-.1 1.7-.2.8 6.3 1.5 12.5 2.2 18.8-.3.1-.5.1-.8.1s-.5 0-.9.1c-.4-3.1-.8-6.3-1.2-9.4-.3-3.2-.6-6.3-1-9.4zm9.2 17.9c-.8-6.3-1.5-12.5-2.2-18.8.6-.1 1.1-.1 1.7-.2 0 .3.1.4.1.6.4 3.3.8 6.5 1.2 9.8.3 2.6.6 5.2.9 7.7 0 .4 0 .6-.4.7s-.8.1-1.3.2zm5-2.4c-.5.3-1 .6-1.6 1-.4-3-.7-6-1.1-8.9s-.7-5.9-1.1-8.9c.6-.1 1.1-.1 1.7-.2.8 5.6 1.4 11.3 2.1 17zm-.2-17.3c.6-.1 1.1-.1 1.7-.2.6 5.2 1.2 10.3 1.9 15.5-.5.3-1 .6-1.6 1-.7-5.5-1.4-10.9-2-16.3zm-15.1 20.9c-.7-6.2-1.4-12.4-2.1-18.7.5-.1.9-.1 1.3-.2.8 6.2 1.5 12.4 2.2 18.7-.4.2-.9.2-1.4.2zm22-7.6c-.6.3-1 .6-1.6.9L125 1901c.6-.1 1.1-.1 1.7-.2.5 4.7 1.1 9.4 1.7 14zm.1-14.1c.3-.1.6-.1.9-.1h.8c.5 4.1 1 8.2 1.5 12.4-.5.3-1 .6-1.6 1-.6-4.6-1.1-8.9-1.6-13.3zm3.5-.5c.7-.1 1.2-.2 1.9-.3.4 3.6.9 7.2 1.3 10.8-.6.3-1.1.7-1.8 1.1-.5-3.9-1-7.7-1.4-11.6zm3.7-.4c.6-.1 1.1-.1 1.7-.2.1.6.2 1.1.2 1.6.3 2.3.5 4.6.8 6.9.1.5-.1.9-.6 1.1-.3.1-.6.3-1 .6-.3-3.4-.7-6.7-1.1-10zm6.1 7c-.6.3-1.1.6-1.6.9-.3-2.8-.7-5.6-1-8.4.6-.1 1.1-.1 1.7-.2.3 2.6.6 5.1.9 7.7zm.9-7.9c.6-.1 1.1-.1 1.7-.2.2 2.1.5 4.1.7 6.2-.5.3-1 .6-1.6 1-.3-2.5-.5-4.7-.8-7zm5.7 3.9c-.5.3-1 .6-1.6.9-.3-1.8-.5-3.6-.7-5.4.6-.1 1.1-.1 1.7-.2.3 1.7.5 3.2.6 4.7zm3-5c.1 1.1.2 2.1.4 3.1-.5.3-1 .6-1.6 1-.2-1.3-.3-2.5-.5-3.8.5-.2 1.1-.2 1.7-.3zm3.6 1.1c-.5.3-1 .6-1.6.9-.1-.8-.2-1.5-.3-2.2.5-.3 1.1-.2 1.6-.3.4.6.3 1.1.3 1.6zm3-1.8c-.4.2-.8.5-1.2.7 0-.3-.1-.4-.1-.7.5-.1.9-.1 1.3-.2v.2zm-80.2 9.9c.8-.1 1.5-.2 2.2-.3.2.5 2.3 16.9 2.3 18.7-.7.2-1.5.3-2.3.3-.7-6.3-1.5-12.5-2.2-18.7zm18.6 16.6c-.2 0-.3.1-.4.1-.4.1-.8.1-1.3.2-.7-6.2-1.5-12.5-2.2-18.7.6-.1 1.1-.1 1.7-.2.7 6.2 1.4 12.4 2.2 18.6zm-7.5-18c.6-.1 1.1-.1 1.7-.2.7 6.2 1.5 12.4 2.2 18.7-.6.1-1.1.1-1.7.2-.7-6.3-1.4-12.5-2.2-18.7zm-3 19.3c-.6.1-1.1.1-1.7.2-.7-6.2-1.5-12.4-2.2-18.7.3 0 .6-.1.8-.1.3 0 .5-.1.9-.1.7 6.3 1.4 12.4 2.2 18.7zm3.5-.4c-.6.1-1.1.1-1.7.2-.7-6.2-1.5-12.4-2.2-18.7.3-.1.6-.1.8-.2.3 0 .5 0 .9-.1.7 6.4 1.4 12.5 2.2 18.8zm-14.7 1.8c-.5.1-1 .1-1.5.2-.2-.5-2.3-17.1-2.3-18.6.2 0 .5-.1.7-.1.3 0 .5-.1.8-.1.2.5 2.2 16.6 2.3 18.6zm3.5-.4c-.6.1-1.1.1-1.7.2-.7-6.2-1.5-12.4-2.2-18.7.6-.1 1.1-.1 1.6-.2.2.5 2.2 16.5 2.3 18.7zm-12.7-17.4c.8 6.3 1.5 12.4 2.2 18.6-.6.1-1.1.1-1.7.2-.7-6.2-1.5-12.4-2.2-18.6.6-.1 1.1-.1 1.7-.2zm5.7 18.2c-.6.1-1.1.1-1.7.2-.7-6.2-1.5-12.4-2.2-18.6.3-.1.6-.1.8-.1.3 0 .5 0 .9-.1.8 6.2 1.5 12.4 2.2 18.6zm-21.4-16.3c.6-.1 1.1-.1 1.7-.2.7 6.2 1.5 12.4 2.2 18.6-.6.1-1.1.1-1.7.2-.7-6.2-1.5-12.3-2.2-18.6zm14.4 17.2c-.5.1-.8.1-1.2.2h-.5c-.7-6.2-1.5-12.3-2.2-18.6.6-.1 1.1-.2 1.7-.2.8 6.1 1.5 12.3 2.2 18.6zm-3.5.4c-.2 0-.3.1-.5.1-.3 0-.7.1-1.1.1-.7-6.2-1.5-12.4-2.2-18.6.6-.1 1.1-.1 1.6-.2.1.4 2.2 17.3 2.2 18.6zm-10.5 1.3c-.6.1-1.1.1-1.7.2-.7-6.2-1.5-12.4-2.2-18.6.3 0 .6-.1.8-.1.3 0 .5-.1.9-.1.8 6.2 1.5 12.3 2.2 18.6zm7-.9c-.6.1-1.1.1-1.6.2-.2-.5-2.3-17.1-2.3-18.6.5-.1 1.1-.1 1.7-.2.8 6.2 1.5 12.4 2.2 18.6zm-14.2-17c.1-.1.2-.1.3-.1.3 0 .7-.1 1.1-.1.8 6.2 1.5 12.3 2.2 18.5-.2 0-.3.1-.5.1s-.3 0-.6.1c-.4-2-.6-4.1-.9-6.1-.3-2.1-.6-4.1-.9-6.2-.1-2.1-.4-4.2-.7-6.2zm56.2 11.9c-.4.1-.6.1-1 .1-.8-6.3-1.5-12.5-2.2-18.8.4-.1.7-.1 1.2-.1.6 6.3 1.3 12.5 2 18.8z"/></g></svg>