<svg version="1.1" xmlns="http://www.w3.org/2000/svg" xmlns:xlink="http://www.w3.org/1999/xlink" width="50" height="42" viewBox="0 0 50 42"><g id="communication"><path id="6" d="M49.054,11.827 C49.423,12.452 49.582,13.057 49.528,13.642 C49.528,13.642 47.859,31.885 47.859,31.885 C47.800,32.535 47.535,33.084 47.068,33.533 C46.598,33.982 46.072,34.179 45.485,34.125 C45.485,34.125 41.965,33.801 41.965,33.801 C41.965,33.801 33.100,41.247 33.100,41.247 C32.737,41.607 32.198,41.754 31.482,41.688 C31.351,41.676 31.097,41.588 30.717,41.421 C29.893,41.083 29.530,40.394 29.625,39.352 C29.625,39.352 30.232,32.719 30.232,32.719 C30.232,32.719 15.272,31.339 15.272,31.339 C14.685,31.285 14.153,30.990 13.677,30.454 C13.199,29.918 12.991,29.326 13.051,28.675 C13.051,28.675 14.079,17.438 14.079,17.438 L10.852,17.140 C10.852,17.140 10.540,20.555 10.540,20.555 C10.463,21.400 10.085,21.924 9.410,22.123 C9.273,22.176 9.108,22.193 8.913,22.175 C8.390,22.127 7.982,21.927 7.686,21.570 C7.686,21.570 3.812,16.491 3.812,16.491 C3.812,16.491 1.084,16.240 1.084,16.240 C0.627,16.197 0.852,16.006 0.565,15.552 C0.277,15.100 0.100,15.241 0.142,14.785 C0.142,14.785 1.255,2.619 1.255,2.619 C1.297,2.165 1.500,1.724 1.869,1.298 C2.236,0.874 2.052,0.627 2.509,0.669 C2.509,0.669 24.294,2.677 24.294,2.677 C24.685,2.713 24.508,2.927 24.956,3.427 C25.403,3.928 25.606,4.406 25.564,4.860 C25.564,4.860 25.209,8.743 25.209,8.743 C25.209,8.743 47.618,10.810 47.618,10.810 C48.205,10.864 48.682,11.203 49.054,11.827 zM14.274,15.310 C14.274,15.310 14.720,10.433 14.720,10.433 C14.773,9.847 15.087,9.286 15.663,8.749 C16.237,8.212 16.819,7.970 17.405,8.024 C17.405,8.024 22.587,8.502 22.587,8.502 L22.936,4.697 L3.282,2.885 L2.247,14.202 C2.247,14.202 4.691,14.427 4.691,14.427 C5.278,14.481 5.657,14.648 5.829,14.926 C5.829,14.926 8.528,19.039 8.528,19.039 C8.528,19.039 8.736,16.777 8.736,16.777 C8.819,15.867 8.937,14.818 10.176,14.933 C10.176,14.933 14.274,15.310 14.274,15.310 zM46.874,13.870 L17.787,11.188 L16.231,28.200 C16.231,28.200 31.386,29.598 31.386,29.598 C31.973,29.652 32.477,29.880 32.901,30.278 C33.324,30.679 33.455,31.765 33.402,32.351 C33.402,32.351 32.963,37.150 32.963,37.150 C32.963,37.150 39.760,30.960 39.760,30.960 C40.187,30.606 40.726,30.459 41.378,30.519 C41.378,30.519 45.317,30.882 45.317,30.882 L46.874,13.870 z" fill="#FFFFFF" /><path id="Forme-539" d="M23.063,19.465 C23.063,19.465 33.526,20.430 33.526,20.430 C34.567,20.526 35.140,20.022 35.242,18.916 C35.283,18.462 35.172,18.058 34.909,17.705 C34.645,17.353 34.284,17.155 33.829,17.113 C33.829,17.113 23.367,16.149 23.367,16.149 C22.910,16.107 22.521,16.235 22.198,16.533 C21.875,16.832 21.692,17.209 21.651,17.663 C21.549,18.770 22.020,19.369 23.063,19.465 C23.063,19.465 23.063,19.465 23.063,19.465 zM38.512,20.890 C38.838,20.920 39.243,20.794 39.730,20.510 C40.085,20.216 40.284,19.840 40.326,19.385 C40.356,19.060 40.228,18.655 39.944,18.169 C39.162,17.376 38.380,17.304 37.598,17.953 C37.247,18.183 37.049,18.558 37.002,19.078 C36.954,19.600 37.080,20.005 37.383,20.294 C37.495,20.501 37.872,20.700 38.512,20.890 C38.512,20.890 38.512,20.890 38.512,20.890 z" fill="#FFFFFF" opacity="0.502" /></g></svg>