<svg version="1.1" xmlns="http://www.w3.org/2000/svg" xmlns:xlink="http://www.w3.org/1999/xlink" width="40" height="49" viewBox="0 0 40 49"><g id="conception"><path id="Rectangle-arrond" d="M38.481,41.693 C38.481,41.693 11.991,48.773 11.991,48.773 C11.095,49.013 10.168,48.484 9.919,47.592 C9.919,47.592 0.175,12.608 0.175,12.608 C-0.073,11.716 0.451,10.799 1.347,10.560 C1.347,10.560 26.588,3.814 26.588,3.814 L24.890,6.581 L2.487,12.568 L11.932,46.476 L37.882,39.541 L30.986,14.783 L32.158,12.734 C32.158,12.734 39.654,39.645 39.654,39.645 C39.902,40.537 39.377,41.454 38.481,41.693 zM26.698,17.222 C26.674,17.263 26.607,17.332 26.496,17.431 C26.496,17.431 23.660,19.583 23.660,19.583 C23.628,19.591 23.582,19.613 23.522,19.646 C23.461,19.680 23.415,19.700 23.383,19.709 C23.221,19.752 23.005,19.724 22.735,19.623 C22.414,19.469 22.269,19.198 22.300,18.810 C22.300,18.810 22.725,15.289 22.725,15.289 C22.730,15.184 22.768,15.071 22.838,14.949 C22.838,14.949 30.965,0.590 30.965,0.590 C31.049,0.396 31.204,0.267 31.431,0.207 C31.689,0.138 31.921,0.163 32.127,0.279 C32.127,0.279 34.552,1.697 34.552,1.697 C35.078,1.969 35.181,2.338 34.860,2.802 C34.860,2.802 26.698,17.222 26.698,17.222 zM31.966,2.130 L24.378,15.621 L24.221,17.109 L25.381,16.231 L33.017,2.727 L31.966,2.130 z" fill="#FFFFFF" /><path id="Rectangle-503" d="M21.941,13.202 C21.941,13.202 11.808,15.878 11.808,15.878 C11.338,16.002 10.854,15.727 10.728,15.263 C10.602,14.799 10.881,14.323 11.352,14.199 C11.352,14.199 23.090,11.099 23.090,11.099 L21.941,13.202 zM11.831,26.491 C12.065,26.973 11.858,27.551 11.368,27.781 C10.879,28.011 10.293,27.807 10.059,27.325 C9.826,26.843 10.033,26.265 10.522,26.035 C11.011,25.805 11.597,26.009 11.831,26.491 zM9.900,22.727 C9.407,22.950 8.824,22.737 8.598,22.251 C8.371,21.766 8.587,21.191 9.080,20.968 C9.572,20.745 10.155,20.958 10.382,21.443 C10.608,21.929 10.392,22.503 9.900,22.727 zM9.116,19.887 C8.623,20.110 8.040,19.897 7.814,19.412 C7.588,18.926 7.804,18.352 8.296,18.129 C8.789,17.906 9.372,18.118 9.598,18.604 C9.825,19.089 9.609,19.664 9.116,19.887 zM8.332,17.047 C7.840,17.271 7.257,17.058 7.031,16.572 C6.804,16.087 7.020,15.512 7.513,15.289 C8.005,15.066 8.588,15.279 8.815,15.764 C9.041,16.250 8.825,16.825 8.332,17.047 zM11.369,28.936 C11.858,28.705 12.444,28.909 12.678,29.392 C12.911,29.874 12.704,30.451 12.215,30.681 C11.726,30.912 11.140,30.708 10.906,30.226 C10.672,29.743 10.879,29.166 11.369,28.936 zM12.190,31.741 C12.679,31.511 13.265,31.715 13.499,32.197 C13.732,32.679 13.525,33.257 13.036,33.487 C12.547,33.718 11.961,33.514 11.727,33.031 C11.493,32.549 11.700,31.972 12.190,31.741 zM14.319,25.114 C14.319,25.114 27.788,21.558 27.788,21.558 C28.258,21.433 28.742,21.708 28.868,22.172 C28.994,22.636 28.715,23.113 28.244,23.237 C28.244,23.237 14.776,26.793 14.776,26.793 C14.305,26.917 13.822,26.642 13.696,26.179 C13.570,25.715 13.849,25.238 14.319,25.114 zM15.113,28.034 C15.113,28.034 28.582,24.478 28.582,24.478 C29.052,24.353 29.536,24.629 29.662,25.093 C29.788,25.556 29.509,26.033 29.038,26.157 C29.038,26.157 15.570,29.714 15.570,29.714 C15.099,29.838 14.616,29.563 14.490,29.099 C14.364,28.635 14.643,28.159 15.113,28.034 zM15.880,30.853 C15.880,30.853 29.348,27.296 29.348,27.296 C29.818,27.172 30.302,27.447 30.428,27.911 C30.554,28.375 30.275,28.851 29.804,28.976 C29.804,28.976 16.336,32.532 16.336,32.532 C15.866,32.656 15.382,32.381 15.256,31.918 C15.130,31.454 15.409,30.977 15.880,30.853 zM16.688,33.824 C16.688,33.824 27.311,31.019 27.311,31.019 C27.782,30.895 28.265,31.170 28.391,31.634 C28.391,31.634 28.443,31.824 28.443,31.824 C28.569,32.287 28.290,32.764 27.819,32.888 C27.819,32.888 17.196,35.693 17.196,35.693 C16.725,35.818 16.242,35.542 16.115,35.079 C16.115,35.079 16.064,34.889 16.064,34.889 C15.938,34.425 16.217,33.948 16.688,33.824 zM11.542,18.257 C11.542,18.257 11.490,18.067 11.490,18.067 C11.364,17.603 11.643,17.127 12.114,17.002 C12.114,17.002 21.172,14.611 21.172,14.611 L20.871,15.161 L20.871,16.693 C20.871,16.693 12.622,18.872 12.622,18.872 C12.152,18.996 11.668,18.721 11.542,18.257 zM12.304,21.060 C12.178,20.597 12.457,20.120 12.928,19.996 C12.928,19.996 20.871,17.898 20.871,17.898 L20.871,19.698 C20.871,19.698 13.384,21.675 13.384,21.675 C12.914,21.800 12.430,21.524 12.304,21.060 z" fill="#FFFFFF" opacity="0.502" /></g></svg>