<svg version="1.1" xmlns="http://www.w3.org/2000/svg" xmlns:xlink="http://www.w3.org/1999/xlink" width="60" height="62" viewBox="0 0 60 62"><defs><filter id="Forme-535-fx" filterUnits="userSpaceOnUse"><feFlood flood-color="#FFFFFF" flood-opacity="1.000"/><feComposite operator="in" in2="SourceGraphic"/><feBlend mode="normal" in2="SourceGraphic" result="colorOverlay"/></filter><filter id="rosace-fx" filterUnits="userSpaceOnUse"><feFlood flood-color="#FFFFFF" flood-opacity="1.000"/><feComposite operator="in" in2="SourceGraphic"/><feBlend mode="normal" in2="SourceGraphic" result="colorOverlay"/></filter></defs><g id="conseil"><path id="Forme-535" d="M32.877,31.005 L35.006,28.911 L43.359,31.147 L32.877,31.005 zM30.747,33.098 L32.811,35.250 L30.583,43.711 L30.747,33.098 zM28.233,26.164 L30.461,17.703 L30.297,28.316 L28.233,26.164 zM17.677,30.797 L28.160,30.940 L26.030,33.034 L17.677,30.797 z" fill="#FFFFFF" opacity="0.502" filter="url(#Forme-535-fx)" /><path id="rosace" d="M57.053,30.328 L57.037,31.411 L58.767,31.435 L58.754,32.311 L57.023,32.287 L57.007,33.301 L59.045,33.329 L59.031,34.219 L55.999,34.178 L56.072,29.425 L59.043,29.465 L59.029,30.355 L57.053,30.328 zM45.842,47.050 L34.011,39.705 L34.365,38.350 L42.584,43.603 L37.666,35.005 L34.660,35.746 L29.916,53.255 L26.722,39.680 L14.704,46.625 L22.070,34.483 L8.243,30.664 L25.723,26.406 L26.533,23.381 L18.142,18.125 L23.302,26.961 L21.959,27.300 L14.833,14.728 L26.864,22.149 L30.614,8.152 L34.963,26.405 L52.794,31.272 L38.890,34.703 L45.842,47.050 zM30.025,48.480 L33.513,35.259 L30.765,32.056 L30.506,31.790 L27.064,35.126 L30.025,48.480 zM18.117,43.320 L26.430,38.439 L25.738,35.495 L23.404,34.851 L18.117,43.320 zM26.638,27.622 L12.960,30.765 L26.011,34.272 L29.731,30.994 L26.638,27.622 zM30.575,12.928 L27.132,26.472 L30.009,29.605 L30.313,29.908 L33.652,26.239 L30.575,12.928 zM48.076,31.244 L34.500,27.730 L31.304,31.015 L34.921,34.394 L48.076,31.244 zM38.022,27.207 L43.337,18.520 L34.579,23.770 L34.248,22.408 L46.700,15.163 L39.236,27.549 L38.022,27.207 zM31.294,5.181 L29.703,2.282 L29.658,5.159 L28.663,5.145 L28.737,0.392 L29.650,0.405 L31.214,3.269 L31.258,0.427 L32.260,0.440 L32.186,5.193 L31.294,5.181 zM2.546,33.517 C1.217,33.499 0.185,32.388 0.206,31.050 C0.226,29.698 1.293,28.622 2.621,28.640 C3.957,28.658 4.989,29.763 4.968,31.115 C4.948,32.453 3.881,33.535 2.546,33.517 zM2.606,29.640 C1.829,29.630 1.213,30.270 1.200,31.063 C1.188,31.856 1.785,32.506 2.561,32.517 C3.338,32.528 3.961,31.894 3.974,31.101 C3.986,30.308 3.383,29.651 2.606,29.640 zM29.781,60.597 C30.183,60.602 30.466,60.413 30.477,60.103 C30.487,59.889 30.395,59.701 29.920,59.557 C29.920,59.557 29.357,59.390 29.357,59.390 C28.326,59.052 28.159,58.436 28.165,58.008 C28.178,57.160 28.903,56.597 29.802,56.609 C30.708,56.621 31.381,57.176 31.367,58.086 C31.367,58.086 30.372,58.072 30.372,58.072 C30.377,57.755 30.169,57.532 29.774,57.526 C29.427,57.522 29.165,57.711 29.160,57.994 C29.158,58.118 29.203,58.346 29.657,58.484 C29.657,58.484 30.213,58.671 30.213,58.671 C31.346,59.017 31.499,59.668 31.479,60.123 C31.451,61.068 30.599,61.505 29.767,61.494 C28.745,61.480 28.073,60.856 28.087,60.001 C28.087,60.001 29.088,60.014 29.088,60.014 C29.097,60.318 29.331,60.591 29.781,60.597 z" fill="#FFFFFF" filter="url(#rosace-fx)" /></g></svg>