<svg version="1.1" xmlns="http://www.w3.org/2000/svg" xmlns:xlink="http://www.w3.org/1999/xlink" width="41" height="41" viewBox="0 0 41 41"><g id="realisation"><path id="Rectangle-614" d="M40.822,36.252 L4.893,40.830 L1.809,16.304 L1.888,16.293 L0.171,10.674 L34.181,0.179 L36.668,6.174 L4.687,15.937 L37.737,11.725 L40.822,36.252 zM34.473,5.516 L30.929,2.613 L27.890,3.540 L31.435,6.443 L34.473,5.516 zM28.092,7.463 L24.548,4.561 L21.509,5.488 L25.053,8.391 L28.092,7.463 zM21.711,9.412 L18.167,6.509 L15.128,7.436 L18.672,10.339 L21.711,9.412 zM15.330,11.360 L11.785,8.457 L8.747,9.384 L12.291,12.287 L15.330,11.360 zM5.910,14.235 L8.949,13.307 L5.404,10.405 L2.366,11.332 L5.910,14.235 zM6.382,17.002 L4.343,21.104 L7.494,20.702 L9.533,16.600 L6.382,17.002 zM13.000,16.158 L10.961,20.260 L14.113,19.858 L16.152,15.757 L13.000,16.158 zM19.619,15.315 L17.579,19.417 L20.731,19.015 L22.770,14.913 L19.619,15.315 zM26.237,14.471 L24.198,18.573 L27.350,18.172 L29.389,14.070 L26.237,14.471 zM32.855,13.628 L30.816,17.730 L33.968,17.328 L36.007,13.226 L32.855,13.628 zM36.650,18.267 L20.892,20.275 L21.776,27.206 L21.145,27.286 L20.261,20.355 L4.503,22.364 L5.369,29.297 L37.516,25.200 L36.650,18.267 zM5.448,29.927 L6.543,38.699 L38.689,34.603 L37.594,25.831 L5.448,29.927 z" fill="#FFFFFF" /><path id="Forme-537" d="M34.948,19.872 L35.390,19.817 L35.390,19.821 L34.972,20.070 L34.948,19.872 zM34.058,19.983 L34.500,19.928 L34.547,20.324 L34.129,20.574 L34.058,19.983 zM33.169,20.094 L33.610,20.039 L33.705,20.827 L33.286,21.077 L33.169,20.094 zM32.279,20.204 L32.720,20.149 L32.862,21.330 L32.444,21.580 L32.279,20.204 zM31.389,20.315 L31.831,20.260 L32.019,21.833 L31.601,22.083 L31.389,20.315 zM30.499,20.426 L30.941,20.371 L31.176,22.336 L30.758,22.586 L30.499,20.426 zM29.609,20.537 L30.051,20.482 L30.333,22.839 L29.915,23.089 L29.609,20.537 zM28.665,20.654 L29.161,20.592 L29.490,23.342 L29.021,23.623 L28.665,20.654 zM27.776,20.765 L28.217,20.710 L28.597,23.876 L28.178,24.126 L27.776,20.765 zM26.886,20.876 L27.327,20.821 L27.754,24.379 L27.335,24.629 L26.886,20.876 zM26.493,25.132 L25.996,20.986 L26.437,20.932 L26.911,24.882 L26.493,25.132 zM25.650,25.635 L25.106,21.097 L25.548,21.042 L26.068,25.385 L25.650,25.635 zM25.102,25.962 L24.790,26.000 L24.216,21.208 L24.658,21.153 L25.225,25.889 L25.102,25.962 zM23.900,26.108 L23.326,21.319 L23.768,21.264 L24.342,26.054 L23.900,26.108 zM23.010,26.216 L22.436,21.430 L22.878,21.375 L23.452,26.162 L23.010,26.216 zM22.164,26.319 L21.638,21.529 L21.988,21.485 L22.562,26.270 L22.164,26.319 zM19.497,21.795 L19.807,21.757 L20.332,26.541 L20.070,26.573 L19.497,21.795 zM19.179,26.681 L18.607,21.906 L19.049,21.851 L19.621,26.627 L19.179,26.681 zM18.289,26.789 L17.717,22.017 L18.159,21.962 L18.731,26.735 L18.289,26.789 zM17.399,26.897 L16.828,22.128 L17.269,22.073 L17.841,26.843 L17.399,26.897 zM16.509,27.005 L15.938,22.239 L16.379,22.184 L16.951,26.951 L16.509,27.005 zM15.457,27.133 L14.886,22.369 L15.490,22.294 L16.061,27.059 L15.457,27.133 zM14.567,27.241 L13.996,22.480 L14.438,22.425 L15.009,27.187 L14.567,27.241 zM13.677,27.349 L13.106,22.591 L13.548,22.536 L14.118,27.295 L13.677,27.349 zM12.786,27.457 L12.217,22.702 L12.658,22.647 L13.228,27.403 L12.786,27.457 zM11.896,27.565 L11.327,22.813 L11.768,22.758 L12.338,27.511 L11.896,27.565 zM11.006,27.673 L10.437,22.923 L10.878,22.868 L11.448,27.619 L11.006,27.673 zM10.116,27.781 L9.547,23.034 L9.989,22.979 L10.558,27.727 L10.116,27.781 zM9.226,27.889 L8.657,23.145 L9.099,23.090 L9.667,27.835 L9.226,27.889 zM8.335,27.997 L7.767,23.256 L8.209,23.201 L8.777,27.944 L8.335,27.997 zM7.445,28.105 L6.877,23.366 L7.319,23.311 L7.887,28.052 L7.445,28.105 zM6.714,28.194 L6.047,23.470 L6.429,23.422 L6.997,28.160 L6.714,28.194 zM7.960,36.195 L7.853,36.258 L7.046,30.544 L7.279,30.515 L7.960,36.195 zM8.169,30.405 L8.803,35.691 L8.384,35.941 L7.727,30.460 L8.169,30.405 zM9.059,30.296 L9.645,35.188 L9.227,35.438 L8.617,30.350 L9.059,30.296 zM9.949,30.187 L10.488,34.685 L10.070,34.935 L9.508,30.241 L9.949,30.187 zM10.839,30.077 L11.331,34.182 L10.913,34.432 L10.397,30.131 L10.839,30.077 zM11.729,29.968 L12.174,33.679 L11.756,33.929 L11.288,30.022 L11.729,29.968 zM13.017,33.176 L12.599,33.426 L12.177,29.912 L12.619,29.858 L13.017,33.176 zM13.860,32.673 L13.441,32.923 L13.068,29.803 L13.509,29.749 L13.860,32.673 zM14.703,32.170 L14.284,32.419 L13.958,29.693 L14.399,29.639 L14.703,32.170 zM15.545,31.667 L15.127,31.916 L14.847,29.584 L15.289,29.530 L15.545,31.667 zM16.541,31.072 L15.970,31.413 L15.738,29.474 L16.341,29.400 L16.541,31.072 zM17.384,30.569 L16.966,30.819 L16.789,29.345 L17.231,29.291 L17.384,30.569 zM18.227,30.066 L17.809,30.316 L17.679,29.236 L18.121,29.181 L18.227,30.066 zM19.070,29.563 L18.652,29.812 L18.569,29.126 L19.011,29.072 L19.070,29.563 zM19.913,29.060 L19.494,29.309 L19.459,29.017 L19.901,28.962 L19.913,29.060 z" fill="#FFFFFF" opacity="0.502" /></g></svg>