<?xml version="1.0" standalone="no"?>
<!DOCTYPE svg PUBLIC "-//W3C//DTD SVG 20010904//EN"
 "http://www.w3.org/TR/2001/REC-SVG-20010904/DTD/svg10.dtd">
<svg version="1.0" xmlns="http://www.w3.org/2000/svg"
 width="310.000000pt" height="310.000000pt" viewBox="0 0 310.000000 310.000000"
 preserveAspectRatio="xMidYMid meet">
<metadata>
Created by potrace 1.11, written by Peter Selinger 2001-2013
</metadata>
<g transform="translate(0.000000,310.000000) scale(0.100000,-0.100000)"
fill="#000000" stroke="none">
<path d="M0 2065 l0 -1035 27 -6 c36 -10 271 10 353 29 582 135 1000 662 1000
1262 0 263 -68 493 -208 712 l-47 73 -562 0 -563 0 0 -1035z"/>
<path d="M2003 3083 c3 -10 21 -63 40 -118 104 -294 140 -625 102 -945 -14
-119 -37 -247 -55 -300 -4 -14 -16 -52 -25 -85 -126 -434 -440 -854 -834
-1119 -317 -213 -673 -329 -1053 -343 l-178 -6 0 -84 0 -83 1550 0 1550 0 0
1550 0 1550 -551 0 c-520 0 -551 -1 -546 -17z"/>
</g>
</svg>
